<svg width="82" height="82" viewBox="0 0 82 82" fill="none" xmlns="http://www.w3.org/2000/svg"><path d="M33.8 67.2l.3.2a43 43 0 0038.9 0 17 17 0 006.9-6.7c.7-1.5 1.1-3 1.1-4.5 0-4-2.7-8.1-8-11.2-4.9-2.8-11-4.4-17.3-4.6" stroke="#fff" stroke-width="1.2" stroke-linecap="round" stroke-linejoin="round"></path><path d="M26.3 67.5c.9 3.2 3.5 6.3 7.8 8.9a43 43 0 0038.9 0c5.3-3.1 8-7.2 8-11.3v-9c0 1.6-.4 3-1.1 4.6a17 17 0 01-7 6.7 43 43 0 01-38.8 0l-.3-.2M24.4 27h0m8.1 0h0m5.8.9c3.5.7 6.8 2 9.6 3.6 5.4 3 8 7.1 8 11.2 0 1.5-.3 3-1 4.5a17 17 0 01-7 6.7 43 43 0 01-38.9 0 17 17 0 01-6.9-6.7c-.7-1.5-1-3-1-4.5 0-4 2.6-8.1 8-11.2a34 34 0 019.5-3.6" stroke="#fff" stroke-width="1.2" stroke-linecap="round" stroke-linejoin="round"></path><path d="M56 42.7v9c0 4-2.7 8-8.1 11.2a43 43 0 01-38.9 0c-5.3-3.1-8-7.2-8-11.2v-9c0 1.5.4 3 1.1 4.5a17 17 0 007 6.7 43 43 0 0038.8 0 17 17 0 007-6.7c.7-1.5 1-3 1-4.5h0zm-13.5-8.1l-3 1.7m-25.1-1.7l3.1 1.7m-8.9 6.4H13m1.4 8.1l3.1-1.8m11 5.2v-2.6m14-.8l-3-1.8m8.9-6.3H44" stroke="#fff" stroke-width="1.2" stroke-linecap="round" stroke-linejoin="round"></path><path d="M42.4 21.7l-14 21V29.2l14-7.5v0z" stroke="#fff" stroke-width="1.2" stroke-linecap="round" stroke-linejoin="round"></path><path d="M14.5 21.7l14 21V29.2l-14-7.5v0z" stroke="#fff" stroke-width="1.2" stroke-linecap="round" stroke-linejoin="round"></path><path d="M28.5 1v28.2l-14-7.5L28.5 1z" stroke="#fff" stroke-width="1.2" stroke-linecap="round" stroke-linejoin="round"></path><path d="M42.4 21.7l-14 7.5V1l14 20.7zm38.4-3.4h0-.1L76.3 21l-1.5.9c.3-.2.3-.8 0-1.4L67.2 6.2c-.4-.8-1-1.3-1.5-1.6-.4-.2-.8-.2-1 0l5.8-3.4.2-.1c.7-.3 1.8.4 2.5 1.6L80.8 17c.3.7.3 1.2 0 1.4v0z" stroke="#fff" stroke-width="1.2" stroke-linecap="round" stroke-linejoin="round"></path><path d="M74.8 21.8H74l-2-1.2c-1-.6-1.9-.1-1.9 1v12.6c0 .6-.2 1-.5 1.2-.3.2-.8.2-1.3-.1l-5.2-3a4 4 0 01-1.8-3.2V16.5a4 4 0 00-1.8-3.1l-2-1.2c-.8-.4-1.2-1.7-.7-2.1l7.5-5.4.2-.1c.3-.2.7-.1 1 0 .6.3 1.2.8 1.6 1.6l7.6 14.2c.3.6.2 1.2 0 1.4h0z" stroke="#fff" stroke-width="1.2" stroke-linecap="round" stroke-linejoin="round"></path><path d="M76.3 21v9.8c0 .5-.2.9-.5 1l-6 3.6h0c.3-.2.5-.6.5-1.2V21.6c0-1.1.8-1.6 1.8-1l2 1.1c.2.2.4.2.6.1h0l1.6-.9h0z" stroke="#fff" stroke-width="1.2" stroke-linecap="round" stroke-linejoin="round"></path></svg>