<svg width="1678" height="693" viewBox="0 0 1678 693" fill="none" xmlns="http://www.w3.org/2000/svg"><path d="m1437.5 341 4.2 7.7 7.8 4.3-7.8 4.2-4.2 7.8-4.3-7.8-7.7-4.2 7.7-4.3 4.3-7.7ZM536.5 274l3.2 5.8 5.8 3.2-5.8 3.2-3.2 5.8-3.2-5.8-5.8-3.2 5.8-3.2 3.2-5.8ZM256.5 184l2.8 5.2 5.2 2.8-5.2 2.8-2.8 5.2-2.8-5.2-5.2-2.8 5.2-2.8 2.8-5.2ZM1133.5 254l2.8 5.2 5.2 2.8-5.2 2.8-2.8 5.2-2.8-5.2-5.2-2.8 5.2-2.8 2.8-5.2ZM1158.5 134l1 2 2 1-2 1-1 2-1-2-2-1 2-1 1-2ZM633.5 268l1 2 2 1-2 1-1 2-1-2-2-1 2-1 1-2ZM381.5 325l1 2 2 1-2 1-1 2-1-2-2-1 2-1 1-2ZM491.5 152l1 2 2 1-2 1-1 2-1-2-2-1 2-1 1-2ZM600.5 158l1 2 2 1-2 1-1 2-1-2-2-1 2-1 1-2ZM1026.5 129l1 2 2 1-2 1-1 2-1-2-2-1 2-1 1-2ZM267.5 153l1 2 2 1-2 1-1 2-1-2-2-1 2-1 1-2ZM184.5 267l1 2 2 1-2 1-1 2-1-2-2-1 2-1 1-2ZM1270.5 306l1 2 2 1-2 1-1 2-1-2-2-1 2-1 1-2ZM1477.5 244l1 2 2 1-2 1-1 2-1-2-2-1 2-1 1-2ZM1635.5 382l1 2 2 1-2 1-1 2-1-2-2-1 2-1 1-2ZM270.5 351l4.6 8.4 8.4 4.6-8.4 4.6-4.6 8.4-4.6-8.4-8.4-4.6 8.4-4.6 4.6-8.4ZM1293.5 207l3.2 5.8 5.8 3.2-5.8 3.2-3.2 5.8-3.2-5.8-5.8-3.2 5.8-3.2 3.2-5.8Z" fill="#0A0A1F"/><path d="M1615 691.4c-29-1.9-53.4-15.1-63.9-20.8-10.5-5.6-52-10.9-59-11.1-7.1-.2-7.3 1.5-6.5-.2.9-1.7 3.2-2 4.7-3s6.3-2.5 6.3-2.5 4.7-1.4 6.3-3.1c1.7-1.7-1-1.3-4.9-1.3-3.8 0-4.7-.4-6.2-1.9-1.5-1.4-2.5-1.2-4.5-1.6-1.9-.5-2.5-2.1-3.6-3.4-1-1.3-.2-1.7 1.3-3.6 1.5-1.9 4.3-1.2 4.3-1.2l3.8-1.5s5.6-1.3 9-3.8c3.4-2.5-4.5-.4-8.3-.4-3.9 0-4.5-1.3-4.7-2.7-.3-1.5-3-2.5-6-2.5s-1.3-2.8-.3-5.3c1.1-2.5 2.8-2 4.5-3.5 1.8-1.5 5.8-2 8.6-2.6 2.8-.6 3.2-.8 0-2-3.2-1.3-5.1.4-8.6-1.7-3.4-2.1-4.7-6.3-4.2-8.2.4-2 1-.9 2.7-2.7 1.8-2 5-3.6 9.3-4.7 4.2-1 5-1.2 1.2-2.3-3.8-1-13-.4-16-3.5-3-3.2-3.6-6.8-4.7-9-1-2.4-3.9 0-4.3-2-.4-1.8-1.7-20.3-2-24-.1-3.9-2 1.2-2 1.2s2.3 23.3 0 24.3c-2.4 1-1.8 3.8-3.7 7.2-2 3.3-6.6 3.5-13.7 4-7 .4-5.4 1.8-1.7 5.4 3.6 3.6 9.6 4.2 9.4 9-.2 4.8 0 3.2-4.5 5-4.5 2-9 1.1-9 1.1s-3.6.6-3.6 2.1 8.5.4 10.3 2.3c1.7 1.9 5.3 2.5 5.7 3.4.5.8 1.1 3.7 1.1 3.7v4.4s-1 1.7-3.2 2.8c-2.1 1-7.7.8-7.7.8s-5.4.6-4.5 3.4c.8 2.7 6 .8 8 1.4 1.8.7 5.7 1.7 5.9 2.5.2.9.4 5 0 7.8-.4 2.7-4.5 2.5-7.7 3.6-3.2 1-10.5 1.9-5.8 2.7 4.7.8 8.4.4 10.3 2.5 2 2.1 5 0 4.7 3.4-.2 3.3-16.7-.2-21.4-2.1-4.7-2-11.5-1.3-11.5-3.8s.1-3.4.4-4.8c.2-1.5.2-3 2.8-5.3 2.5-2.3 6.6-1 9-2.3 2.3-1.2 1.7-3.8 0-6.5-1.8-2.7-8-1.4-13.5-4.8-5.6-3.4-6.7-1.5-8.8-5-2.1-3.6-2.4-5.9-3.4-7.4-1.1-1.4-2 3.6-3.9 5-2 1.5-23.7.3-24.4-1.8-.6-2.1-1-5.5-2.3-5.7-1.3-.2-.5 7.6-1.1 9.4-.6 2-5 6.8-7 9.5a17.7 17.7 0 0 1-8.6 5.2c-2.8.9 1.3 3.2 5.1 6.1 3.9 3 2.1 3.2.7 3.8-1.5.6-17 .6-17.6-2.1-.6-2.7-3.2-3.4-9-5.3-5.8-1.8-1.7-4.4-.2-8.6 1.5-4.2-5.3-2-11.1-4.6-5.8-2.5-14.1-13.4-14-18.6.3-5.3-1.6 3.5-4.9 6.3-3.2 2.7-18.1-1.1-26.3-.3-8.1.9-4.5-1.8-4.5-1.8l-.2-5.3s-.8-1.7-3.2-2.5c-2.3-.8-1.5 0-3.4-1.7-2-1.7 0-2 2.8-4 2.8-1.9 7.2-1.2 10.5-2.7 3.2-1.5 2-4.2-1.1-6.7-3.2-2.5-8.1-.4-12.9-.6-4.7-.2-6.4-3.6-13.4-7.6-7.1-4-5.6-7.1-5.6-7.1.5-4.6-.5-8.3.5-12.1 1-3.8 8-.8 11.6-2.5 3.5-1.8 3.3-3.3 5-6.3 1.9-3-4 0-9-.5-4.8-.5-8.1-4.8-12-8.9-3.9-4-12.3-12.6-12.6-15-.2-2.6-1.5-16-1.3-20.8.3-4.7-3-.5-3-.5s1.7 17.4-1.9 18a55 55 0 0 0-9.7 3s-8.5 2-10.8 2c-2.4 0-8.8 1.5-8.8 1.5l-11.5 2.3-2.4-6.8s-2 10.8-4 14a62 62 0 0 1-19.4 15c-7 3-10.5 2-10.5 2l-5.1.7s-.3 1.8 1.5 4c1.8 2.3 3.3 3.6 3.3 3.6l1.6 1.2c1.5 1.3 7.7-1.5 8.8-.2 1 1.2-.3 3.8 0 7.3.2 3.5-.3 5.8-1.9 8.3-1.5 2.5-4.6 3-7.4 4.3-2.9 1.3-1.6.5-4.6 2.3l-7.5 4c-4.1 2.3-6.2-1-13.6.3-7.5 1.2-5.4 1-4.4 2.5s1.8 2.8 8.5 4.3 7.4-.5 7.4-.5.3 2.2 0 5.5c-.2 3.3-2 4.8-6.1 5.6-4.1.7-5.4.7-9.5 1.2-4.2.5-5-2-6.7-7-1.8-5.1-2.9-7.6-2.3-11.4.5-3.8 2.5-4 6.9-6.3s7.2-4 8.2-6.3c1-2.3 15-1.5 15-1.5s4.8-2.5 4-4.3c-.7-1.8-2.8-.5-5.6-.5s-13.6 0-14.7-3c-1-3-2.8-2.3-9.7-5-7-2.8-7.3-7.4-7.5-11.7-.3-4.2.8-4.5 4.4-5.5 3.6-1 5.9-3 7.4-6.6 1.6-3.5 4.1-1.2 7.5-1.5 3.3-.2 9.5-1 10.3-3.3.7-2.2-3.4-2-8.8-1.5s-7.2-2-13.3-3.5c-6.2-1.5-5.7-4.5-6.5-8.3-.8-3.8-4.6-.3-4.9-3-.2-2.8 0-7.1.8-11.6.8-4.6 4.4-2.8 8.2-3.6 3.9-.7 3.9-3.2 5-5.3 1-2 3-1.5 7.9-2.2 4.9-.8 7 0 7 0l3-3.6s-1.5-2-3.6-2.2c-2-.3-5.4 0-5.4 0l-3.8.7-7.2-2.7s-1.8-1.6-2.9-4.3c-1-2.8-1.3-2.3-4-3.3-2.9-1-2.6-3.3-2.6-6 0-2.8.2-5.4.7-8.4.5-3 1-1.5 3.4-5.7 2.3-4.2 4.3-1.8 10-4.9 5.7-3 6.4-6.8 6.4-6.8s-14.9 0-19.5-2.5c-4.7-2.5-12-8-16-11.8-3.8-3.8-3.8-7.9-2.8-13 1-5.2-6.7-2.4-6.7-4.7 0-2.2-.7-22.7 0-25.2.8-2.5 1.3-4.8 0-7.3s-4-.3-5.9 2.5c-1.8 2.8 2.8 3 2.8 5.6v21.6c0 4.6-3 6-5.6 7.5-2.6 1.3 1.8 5.9 1.3 8.7-.5 2.7-5 8.3-7.5 9.8s-5.9 1.8-7.7 5c-1.8 3.3-9.5 3.6-14.6 3.3-5.2-.2-11.9-1-7.3 5.6 4.7 6.5 15.7 10 15.7 10s.8 14 .6 16.7c-.3 2.8-4 3.8-7.5 5-3.6 1.3-2.8 3.8-5.4 4.8-2.6 1-14.4 1-18 2-3.6 1 6.2 3.3 6.2 3.3s12.6.3 14.6 3.6c2 3.2 12.4 3.2 11.6 6.3-.8 3 2.8 13.8 2.8 13.8s-2.5 1.3-4.2 1.5l-4.5.8.5 4.3-2.8 4-3.6 1.5-8.5 1.5s-8 .8-13.1 2c-5.2 1.3.2 2 4.3 2.6 4.2.5 12.4 1 12.4 1l4.6 4.8c1.3 1.5 10.7 2.5 10.7 2.5s-.7 7-.1 11c.5 4.1-.3 2.9-2.4 4.1-2 1.3-1.8 1-2.3 4-.5 3-3.6 2.3-6 2.8-2.6.5-2 1.5-3.2 3.6-1.3 2-5.2.4-10.3 1.7-5.2 1.3-14.2 1-12.6 2.5 1.5 1.5 8.2 1.8 14.9 2 6.7.3 6.2 0 8.5 2.6 2.3 2.5 3.8 2.5 1.4 3-2.5.5-20.5 1-27.1 1-6.7 0-21.9 1.5-23.4-2.8-1.6-4.3-4.4-121-4.4-121s2.6.3 8.5 0c5.9 0 2.6-2 3-5.3.6-3.2 1-6.3 3.7-7.8 2.5-1.5 4.9-2.7 3.8-5-1-2.3-19.8 1-20 0-.3-1-1.3-20-.8-25s6-1.2 10.5-1.7c4.7-.5 1-2.8.8-7.4-.3-4.5 1.8-2.5 8.2-2.5 6.5 0 6.2-2.2 5.4-5-.7-2.8-15.6-1-15.6-1s-9.8-2.8-13.4-3.3c-3.6-.5-16.5.3-18.3 2-1.8 1.8-9.5 2.3-13.9 3.3-4.3 1-11.5 2-9.7 5.5 1.8 3.6 10.2.3 10.2.3l2.4 7.8 12.3.3-.3 26.4-17.2.5c-5.1.3-20.5 1-20.8-.7-.2-1.2.3-2.1 1.5-2.8 1.8-1 10.8-2 10.3-4s-11.5-3-12.6-4.3c-1-1.3-.2-12.6-1-21.7-.8-9-3.6-62-3-68 .4-6.1 24.6-1 35.1-3 10.6-2.1 24.5.4 24.5-5.4 0-5.8.7-23 3.8-24.4 3.1-1.6 4.9-4.3 1.8-8.1-3-3.8-33.7 7.3-39.6 9-5.9 1.8-26.7 6.6-27 2.3-.2-4.2-3.8-25 2.9-27.4 6.6-2.6 1-15.2 5.6-15.7s44.2-5.8 53.7-7.8c9.6-2 6.5-4 7.8-9 1.2-5 3-10.6 5.4-15.4 2.3-4.8 9-2.8 17.5-6.3 8.4-3.6 8.4-4.8 10.7-4 2.4.7 3.1 5 5.7 5.2 2.6.3 2.3-2.2 1.8-7.5-.5-5.3 6-3.8 10-6.6s-3.8-17.6-6.4-23.7c-2.6-6-3.6-8.8-2.3-14.4 1.3-5.5 3.9-7.5 6.7-10.5 2.8-3 2.5-10.6 0-12.7-2.6-2-30.9 15-58.1 26.5A601 601 0 0 1 789 227.5c-89.2 2-115.6-21.2-115.6-21.2-3.5-3.2-5.9 1.4-4.6 5.7 1.2 4.2 2.4 2.9 4 7.8 1.7 5 3.4 2.5 4.6 5.4 1 3-.8 2-3.3 6.2s-13.5 9-15.5 11c-2 1.8.9 5.4 4.8 7.6 4 2.2 2.8 4 3.3 8.6.4 4.7 3 3.2 4.5-.6 1.4-3.7 10.2-2.9 11-1.6.6 1.2 4 2.5 5.7 5.2 1.7 2.8.4 6.4 4 6.5 3.5.1 9.4-5.1 9.4-5.1s.5 5.4.1 11c-.4 5.7.6 14 4.2 14.8 3.7.8 36.9.1 40.7 1.1 3.8 1 6.3 2 7.7 5.8 1.4 3.9 2.4 4.7 2.8 6.3.5 1.7 0 27.5 0 27.5s-33.2 1.2-38 1c-4.7-.3-12.3 2.7-12 4.1.2 1.4-1.3 9.4-.3 12.8 1 3.5 2.2 5.8 15.6 6.2 13.4.4 28.5-.4 29.4 3.5.8 3.8.4 6.3-.7 13.6s-3.4 49.3-3.2 58.4c0 9-8 6.3-11.3 9-3.4 2.6 4.4 3 8 3.7 3.7.6 3.1 3.8-1 3.8-4 0-45.4.6-45.8-1.6-.5-2.2-1.2-24.6 1.7-25.5 2.8-1 6.4-.7 6.8-3.8.5-3 3-2.2 7.5-3 4.5-.8 4.4-3.2 3.4-5.5-1-2.4-11.4-2-14.2-3-2.8-1-9.6-3.2-17.3-3-7.8 0-18.9 2.4-22.8 3-4 .5-2.7 3.5-.4 5.9 2.2 2.3 4.9.1 6.8 4 2 3.8 9.9 5.6 9.9 5.6v26.1h-16.5c-2.8 0-1 2 2.4 4.1 3.5 2.2 1.9 4.7 3.5 9.8 1.7 5.1 8 5.7 8 5.7s1.2 85.8 0 89.2c-1 3.5-12.9 7.5-17.5 7.6-4.7.1-6.6 3-7.8 5.5-1 2.6-11.6 3.5-13.3 2.6-1.7-.8-.5-8.8-.3-11.5.1-2.8 2.4-3 5-3.6 2.4-.7 4.4-4.6 6.3-5.3 1.8-.7 14.4-.7 18.4-1.8 4-1 3.6-2.3 2.2-2.7-1.4-.4-12.8-1.5-17.3-2-4.5-.6-9.8-4.5-10.2-7-.5-2.5-2.9-5.5-6-5.2-3.3.3-2.3-11.2 2.4-12.6 4.8-1.3 7.6-6.3 13.1-7.3s14-1.5 15.4-3.6c1.2-2-.5-1.8-4.1-1.3-3.7.4-11.7-2.5-16.3-3.5-4.7-1-4.7-2.2-5.8-6.9-1.1-4.7-6.8-3.2-7.3-3.9-.6-.6-2-11.3 1-13 3-1.9 6-5.3 8.5-8.2 2.6-2.9 7.8-1.2 12.7-2.5 5-1.2 5.6-2.3 3.7-3.7-2-1.4-11.6-1.8-14.4-3.7-2.8-2-8.6-3.7-9.6-14.8-1-11 9.7-14.3 13.1-16.8 3.4-2.5 6.8-7 3.1-7.2-3.6-.1-11-1.2-19.7-2.3-8.6-1.1-13.3-12-15.3-15-2-2.8.8-4 1-6.3.1-2.2-1.6-3.7-4.7-4.8-3-1.1-.4-8.1-.4-13.7 0-5.5 1-15.3 2.3-19.3 1.2-4-2.7-4.7-5.6-3.8-3 .8-.3 5.8 0 7.3.2 1.5-.8 24.1-1.3 26.5-.6 2.3-3.1 2.7-4.4 4.2-1.3 1.6.3 7.4-4.5 13.7a47.2 47.2 0 0 1-20.4 13.4c-4 .8-12-1-12.8 1.4-.7 2.3 4.8 2.9 10.5 6 5.8 3.2 9.5 7.2 9.8 9.8.2 2.6.1 4.6.2 9 .2 4.4-1.5 6.7-5 8-3.5 1.2-9.7 6.5-13.4 6.7-3.6.3-12.5 1-10.3 2.7 2.3 1.6 13.1.8 16.5 4 3.4 3.1 13.7 9 13.7 9V490c-6 1.1-4.4 8.1-6.7 8.7-2.2.5-7.6 3.2-10 4.4-2.3 1.2-13 .3-16 1.7-3 1.3 5 2.6 8.2 3.1 3 .6 6.9-.4 9.7 3a31.7 31.7 0 0 0 10.5 6.4s1.4 12 0 12.2c-1.4 0-5.6 4.1-10.8 7.8-5.2 3.7-6.5 5.4-12.1 5.5-5.6.2-15.8.7-13.7 2.1 2.2 1.4 12.4 2 16.4 3 4 1 3.6.7 5.5 3.2 1.8 2.5 10.2 4.8 11.2 6.2 1 1.4 1.1 4.4-.6 10.4-1.6 5.9-4.7 5.6-8.3 7.1-3.5 1.5-11.8.2-15.3-.8s-3-5.6-1.1-7.3c1.8-1.7 10-2 12.8-3.3 2.8-1.4 2.2-4.3 2.2-4.3l-13.7.4c-2.4.2-5 .2-7-2.5-2.2-2.6-10.5-3.3-14.6-4.4-4-1-4.3-4.7-4.7-8.7-.5-4 .4-5.6 4.9-7.1 4.5-1.6 2.8-4 6.2-4.5 3.3-.4 5-2.4 4.5-4.1-.6-1.6-8.8-.8-14.8-2.8-6-1.9-17.7-7.7-19.3-11.4-1.5-3.7-2-8.4-4-5.1-1.9 3.3-6.5.4-14.1-1.5-7.6-2-28.9-3.5-28.9-3.5l-2.2-13-1.4 13.6s-9.9 6.9-16.8 14.5-19 6.9-19 6.9a33.3 33.3 0 0 0 16.3 5.8v15s-4.5.7-11.8 6.2c-7.3 5.5-12.2 4.3-17.3 4.7-5 .4-4.6 3.2-1.8 5.2 2.8 2.1 10.5-.5 9 1.8-1.5 2.4-.7 4-1.7 6.8-1 2.7-2.5 4.7-11.4 5.6-8.8 1-16.2-1.5-19.8-1.7-3.7-.3-4.1.5-8.9 6.3-4.8 5.8-15.2 6-18.8 7.7-3.7 1.7-3 9.1-3 9.1-10.4.3-10 7.6-13.8 8.3-3.8.7-8.6 5.8-11.7 3.6-3-2.2-4-5.8 1-9.7 5-3.8 1.4-4.8 1.4-4.8-6.3-.4-10-6.2-10-6.2-6.6-2-4.6-8.6-4.6-8.6.1-1.9 3.2-2.3 4.5-3.3 1.3-1-4.6-1-7.3-1.5-2.8-.5-3.6-4-3-6 .5-2.2 2.5-.8 3.6-2 1.1-1.4 5-2 6.4-3 1.5-1.1-3.4-1.6-6.3-2.1-2.8-.5-3.6-3.3-3.2-5.5.3-2.3 3.4-3.1 6-4.4 2.5-1.3 1.4-2-1.9-2.4-3.3-.3-5.1-.7-7.7-3-2.6-2.4-4.5-3.7-4.7-8.3-.2-4.6.1-9.2-1.4-8.6-1.6.5.3 9.9-1.6 11-1.8 1.2-2.3 5.6-3.4 6.9-1.1 1.3-6.1 2-8.2 2-2 0-2.5 1.6.2 3.1s4.2 2.6 5.1 4.2c1 1.6-.3 2.8-2.4 4.6-2 1.8-4.3 1.3-6.3 1.3s-3.5 1.1 0 1.8c3.5.6 5 1 6 2.3 1 1.4 3.2.9 3.4 3.1.2 2.3-1.8 4.7-1.8 4.7-1.4 1.8-9.5 2.4-9.5 2.4l8.4 1.9c2.9.6 2.6 3-.7 3.4-3.3.3-5.8 1.7-9.7 2.2-3.9.4-8 4.8-14.5 6.2-6.6 1.3-12 2-8.9 4 3.1 2.2 10.7 2.6 13.4 4.5 2.7 2 1.8 6 .7 9.6-1 3.7-3 5.7-8.1 6.2-5.1.4-9 4.4-12.6 5.6-3.6 1.2-12.2 1.4-11 3.4 1.2 1.9 5 2.8 9.2 3.2 4.2.4 3.7 2.4 3 5.7-.8 3.4-4.5 2.8-8.9 3.7-4.3 1-7.4 2.1-4.8 3.7 2.6 1.6 5.3 1.8 10.4 2.5 5 .8-.2 7.4 4.2 8.7 4.3 1.3 5.1 5.3.7 5.6-4.3.3-3 3.4-6.9 3.4-3.9 0-11 2.4-16.7 3.4-5.7 1-16.6 1-20.4-1.5-3.8-2.5-6.5-9.9-6.3-12.4.2-2.5 2.5-3.3 4.8-5.6 2.3-2.2 7.5-2.5 10.5-4.5 3-2.1-2.4-1.5-5.5-2.4-3.2-.9-5.1-.9-5.6-3.2-.5-2.4-4.2-4-4.5-7.2-.3-3.3.1-5.8 2.2-6.4 2.2-.6 1.8-4.3 5.8-5.6 3.9-1.3 5.7-4.8 2.7-4.5-3 .2-8.3.1-11.3-2.3-3-2.3-6.1-5.4-8.3-11-2.2-5.7-3.3-28.3-5-26.8-1.6 1.5 0 29.5-1.6 30.6-1.5 1.2-3 2.5-6.7 6.8-3.8 4.3-7.1 3.8-10.3 4-3.1.1-7.8.3-3.6 2.2 4.2 1.9 3.5 3.5 7.5 5.7 4.1 2.2 3.2 5.3 3.2 8.7 0 3.4-1.8 4.9-1.8 4.9-4 1.2-3.3 3.5-6 4.7-2.7 1.2-8 3-8 3l9.2 2c2.2 4.1 6.3 2.8 6.3 4.6 0 1.8.6 8.4 0 10.1-.6 1.8-2.3 1.2-2.6 3.3-.3 2-2 3-7.3 3.7-5.3.6-7.8 3.4-2 4.5 5.9 1.2 13.4 4.8 6.6 4.9a27 27 0 0 0-11 2.3c-9.1-2.4-11.9 5.3-11.9 5.3s-15.1-1.4-26.7 5-22.7-4.6-54.2-5c-31.4-.3-34.3 10-47.3 10H0h1678c-16.2 0-43.6-.4-63-1.6Zm-873.6-182a184 184 0 0 0-2 21.7 30 30 0 0 1-.6 10c-.7 1.5-6.8 0-11.5 1.3-4.8 1.2-3.5 3.6-9.5 4.6-6 1.1-8.3.8-13.2 3-5 2-7.8 2.6-8.5.8-.7-1.8 0-78.4 0-78.4-.1-1.8-.3-8.6 6.7-8.1s40-1.4 40.6 1.7c.6 3.1-1 36.5-2 43.4ZM777 306c0-3 1.6-4.1 3.8-5.9 2.2-1.8.7-5.8 2.2-7.6 1.4-1.8 1.6-3.5 1.6-6.5 0 0 27.6-.4 27.8.7.2 1 1.5 3.5 1.8 6.7.4 3.2 2.2 2.7 2.2 2.7s1.6 6.9 1.6 9c0 2.1 1.8 2 2.5 3.5.8 1.6 0 18.8 0 18.8h-43.5V306Zm-1.3 137.4c2.2-1 4.6-.2 7-1 2.3-.8 5.4.1 5.1-1.6-.3-1.8-2-3.2-4.4-3.3-2.4-.2-8.4 0-8.4-1l.7-13.3s8.5-.8 8.8 0c.3.9-2.1 3 0 5.6 2 2.6 7.8-1.2 8.8 2.1 1 3.3 1.1 7.5 1.2 9.9.2 2.3-.8 4.6-.8 4.6s-2.4 1.2-6.3 1.5c-3.9.3-6.1 2-9.6-.3-3.5-2.1-4.4-2.2-2.1-3.2Zm18.9 85.9c.5 3.8 2.2 5.7-.9 7.6-3 2-10 1.8-13.3 1.4-3.3-.4-4.6-4.5-4.6-9.2 0-4.6-1.1-23.3-.8-27.1.4-3.8 0-32.8 1.4-33.2a73 73 0 0 1 15.8 0c1.6 1 3.3 5.4 3.3 5.4l.4 24.4c.2 3.7-1.9 26.8-1.3 30.7Zm108.5 4.8c.8 5.6-.3 12.4-1.2 13.7-1 1.2-5.7.7-8-.8-2.5-1.4-2.1-2.1-6.3-2-4.2.2-5.5-2-7.5-2.6-2-.7-2-.7-5.2-1.2-3-.6-4.7-1.4-5.4-2.7-.8-1.1-2-66.7-2-66.7s34.7-3 35.8-1.2c1.1 1.8-.9 58-.2 63.5Zm2.1-149.2c-.5 8.2-.7 36.7-.9 40.6-.2 3.9 1.3 7.6.2 9.2-1 1.6-5 .3-8.5 2-3.4 1.5-6.8 4.2-4 4.7 3 .5 8.2.4 9.8 1 1.6.8 2.2.6 2.3 2.9.2 2.3-.1 3.9-.1 3.9l-37.4 1.2-.6-43s6.4-.7 9-1.8c2.8-1 2.8-5.8 3.1-7.6.4-1.7 9.8-1.2 10.7-3.7.9-2.5-12.6-4.4-18.4-5-5.8-.5-12.3-3-19.5-2.4-7.2.5-19.5 3.5-25.7 5-6.1 1.4-11.3 1.4-9.4 4.5 2 3.2 14.7.6 14.5 3.8-.2 3.1-4.2 6.9.4 7 4.5.2 9.7-2.8 11.9.4 2.1 3.2 2.1 40.9 2.1 40.9l-15.1.9-.8 23.3h15.6s.1 63.8.3 66.6c.2 2.8-2.3 1.6-6.8 1.6s-5.4-3.7-9.4-4.3c-4-.5-6.3 1.1-10.3.8-4-.4-6.5-3.4-6.5-3.4L810 431s7.6 1.5 8-2.4c.3-3.8.1-8 .1-8s6.5.3 7.2-2c.7-2.3-1.4-4-3.8-4.3-2.3-.3-5.4 1.2-9.5-.9-4.2-2-6.9-.5-10.1-2.5-3.3-1.9-1.7-3.5-6.2-1.4-4.5 2.2-7.6 4.3-7.6 4.3s1.1.5-2.9.9c-4 .3-6 1.4-7.9 1.2l-2-.2-.2-63.7s38.9-2.5 41.7-1.8c3 .7 44-1 48.3-1 4.3 0 39.5-6 40.2-2.3.8 3.7.6 29.9 0 38Zm3.5-65.3a22 22 0 0 1-9.3 2.3c-4.8.5-41.7 1-41.7 1s.4-14 0-15.2c-.3-1.2 1.5-1 2.6-3.3 1-2.3 1.6-5.7 2-7.6.3-2 2-2.9 2.5-5.5.5-2.7.3-5.5 1.6-8.2 1.3-2.6 31.8-4.6 33.8-3.9 2 .7-.4 5.9 1 8.7 1.5 2.8 4.8 2 5.5 5 .7 3 2 14.8 2 19 0 4.3 2.1 6.5 0 7.7Zm63.5 255.6c-.2 2-2.2-.7-5.7-1.8-3.5-1-6.6-.7-8-3.6-1.5-2.8-2-3.2-5.8-4-3.8-1-2.9-2.4-6-3.9-3.1-1.4-3.5 0-6.2-1.2-2.8-1.3-3.5-4.1-3.7-4.9-.2-.7-3.6-88-3.6-88h37s2.2 105.4 2 107.4Z" fill="url(#a)"/><path d="M352.8 250.5c-8.6 4-18.3 8.7-21.3 18.1-1.3 4-1.4 8.5.7 12.2 1.1 2 2.8 3.5 4.4 5 1.7 1.5 3.3 3.3 3.4 5.6.1 4.8-4.4 8.2-8.4 10-4.5 2.2-9.5 3.6-12.9 7.5a11.3 11.3 0 0 0-2.9 6c-.2 2.1.5 4.2 1.7 6.2 1.3 2 2.7 4 2 6.5-.7 2.7-2.9 5-4.5 7.1-6.4 8.4-12.5 17.5-21 24.1-1 .8-2 1.6-3.2 2.3-1.1.8.1 2.5 1.3 1.7 8.9-5.7 15.1-14.2 21.4-22.4l5.3-7.2c1.6-2.1 3.1-4.4 3-7.2 0-2.3-1.3-4.2-2.5-6.1-1.2-2-1.7-4-1-6.2 1.6-4.7 6.4-7 10.8-8.8 4.3-1.9 9-4 11.6-8.3a9.3 9.3 0 0 0 1.3-6.4c-.4-2.1-1.8-4-3.5-5.5-1.7-1.6-3.4-3-4.4-5-1-1.7-1.4-3.8-1.4-5.8.1-9.8 9.2-15.8 17.3-19.7l3.5-1.7c1.3-.6.5-2.6-.8-2ZM365.2 250.8a22.3 22.3 0 0 0-11 19.8c0 4 1.3 7.8 3.4 11.2 2.4 3.8 6.2 6.3 9 9.6 2.6 2.9 4.4 7 2 10.4-2.3 3.4-6.5 4.7-10 6.5-3.7 1.8-7 4.2-8.4 8a20.8 20.8 0 0 0-.3 12.2c1.2 5 3.5 9.6 4.5 14.6.8 4.5.6 9.4-2.6 13-.9 1 .8 2.3 1.7 1.3 6-6.8 2.9-16.3.2-23.9-1.4-4-2.7-8.3-2.3-12.6.2-2 .7-4 1.8-5.7 1-1.8 2.6-3 4.4-4 3.4-2 7.4-3.1 10.5-5.7 3-2.6 4.7-6.3 3.4-10.3-1.3-4-4.7-6.8-7.8-9.7-3-2.8-5.4-6.2-6.6-10.2a20.1 20.1 0 0 1 9.4-22.8c1.2-.7 0-2.4-1.3-1.8ZM334.8 246.6c-6.1 1-13 2.2-16.8 7.5a10 10 0 0 0-1.8 8.2c.7 2.9 2.6 5.6 2.4 8.7-.3 5.5-7.6 3.5-10.2 7-.8 1-1 2.4-.8 3.7.2 1.7.4 3.3 0 5-.7 3.4-2.7 6.6-4.8 9.4-3.5 5-8.8 10-15.6 9.7-1.4 0-1.2 2.1.2 2.2 6 .1 11-3.4 14.8-7.5 2.1-2.4 4-5.1 5.4-8a16 16 0 0 0 2.4-9.7c-.2-1.2-.7-2.7.3-3.7.6-.6 1.5-1 2.4-1.2 2-.6 4.4-1 6-2.4 2.4-2 2.4-5.2 1.6-7.9-.8-2.9-2.6-5.7-2-8.8.5-3.2 3.2-5.8 6-7.3 3.4-1.6 7.1-2.2 10.7-2.8 1.4-.2 1.2-2.3-.2-2Z" fill="#0B0B1E"/><path d="M443.5 157.8c-6.2 36-48.7 73-92 65.7-43.4-7.4-71.2-56.6-65-92.5 4.4-26 26.6-45.4 54.9-51.3l67.3 11.5c24.7 15 39.2 40.6 34.8 66.6Z" fill="#020211"/><path d="M404.4 101.9c-2-4.8-4.2-9-6.9-12.6l-11.8-2c4.8 3.7 8.9 9.5 11.9 17 5.1 13 6.4 29.5 3.5 46.3a130.6 130.6 0 0 1-20.1 49.6c-9.8 14-20.4 21.3-29 19.8-8.6-1.5-16.1-11.8-20.7-28.3a128.9 128.9 0 0 1-2.5-53.5c3-17.3 9.5-31.9 18.7-42.4 5.3-6.1 11-10.2 16.9-12.1l-11.8-2a54.6 54.6 0 0 0-10.7 9.5 94.4 94.4 0 0 0-20.3 45.8c-3.1 18-2.1 39.3 2.6 56.5 5.5 19.6 15 31.4 26.6 33.5 11.7 2 24.6-6.1 36.2-22.8a136.1 136.1 0 0 0 21.3-52.4 94 94 0 0 0-4-50Z" fill="#070717"/><path d="M353.4 212.2c-21-3.6-34.3-3.5-34.3-3.5l-5 29.2c-.2 1.6.7 3.2 2.3 3.9l1.9.7 3-17.7c.1-.6.7-1 1.3-.9.6.1 1 .7.9 1.3l-3.1 18.1 4 1.5 3.1-19c.1-.5.7-1 1.3-.8.6 0 1 .6.9 1.2l-3.3 19.3 4 1.3 3.4-19.9c0-.6.6-1 1.2-.9.6.1 1 .7 1 1.3l-3.5 20.1 4 1.2L340 228c0-.6.6-1 1.2-.9.6.1 1 .6 1 1.2l-3.6 20.8 4 1 3.6-21c0-.7.6-1 1.2-1 .6.2 1 .7 1 1.3l-3.7 21.1 2 .4c.7 0 1.4.2 2 .3l3.7-21.1c0-.6.7-1 1.3-.9.5.1 1 .7.9 1.3l-3.6 21 4 .4 3.6-20.8c.1-.5.7-1 1.3-.8.6 0 1 .6.9 1.2l-3.6 20.6 4.2.3 3.4-20.2c.1-.6.7-1 1.3-.8.6 0 1 .6.9 1.2l-3.4 19.8 4.1.1 3.3-19.2c.1-.6.7-1 1.3-.9.6.1 1 .7.9 1.3l-3.3 18.9h4.2l3.1-18.3c.1-.5.7-1 1.3-.8.6 0 1 .6.9 1.2l-3 17.8 2-.1c1.7 0 3.1-1.3 3.4-3l5-29.1s-12.5-4.5-33.4-8ZM402.1 74.6l-49-8.4a9 9 0 0 0-10.5 7.2l-1.1 6.3 67 11.5 1.2-6.4a9 9 0 0 0-7.5-10.2Zm-49.2 2a2.6 2.6 0 0 1-2.2-3 2.6 2.6 0 0 1 3-2.1c1.5.2 2.5 1.6 2.3 3a2.6 2.6 0 0 1-3 2Zm9.2 1.5a2.6 2.6 0 0 1-2.2-3 2.6 2.6 0 0 1 3-2c1.5.2 2.5 1.5 2.3 3a2.6 2.6 0 0 1-3.1 2Zm9.2 1.6a2.6 2.6 0 0 1-2.2-3 2.6 2.6 0 0 1 3-2c1.5.2 2.5 1.5 2.2 3a2.6 2.6 0 0 1-3 2Zm9.2 1.6a2.6 2.6 0 0 1-2.2-3 2.6 2.6 0 0 1 3-2.1c1.5.2 2.5 1.6 2.2 3a2.6 2.6 0 0 1-3 2Zm9.1 1.5a2.6 2.6 0 0 1-2.1-3 2.6 2.6 0 0 1 3-2c1.5.2 2.4 1.5 2.2 3a2.6 2.6 0 0 1-3 2Zm9.2 1.6a2.6 2.6 0 0 1-2.2-3 2.6 2.6 0 0 1 3-2c1.5.2 2.5 1.5 2.3 3a2.6 2.6 0 0 1-3 2Z" fill="#0B0B1E"/><path d="M334.7 163.3c.6-.6 1-1.2 1.4-1.4 4.5-2.4 7.8-6 10.7-9.9l11.4-14.9c.2-.2.3-.6.3-1v-2.3l-1.3.9c-2.3 1.9-4.7 1.3-5.5-1.6-.4-1.8-.5-3.7-.7-5.5 0-.2.7-.8.8-.7 2.5 1.4 5 .5 7.4-.2 2-.7 2.2-.8 1.9-2.9-.3-2-1-4-1.3-6-.2-1.1-.2-2.3-.3-3.5 1.8.7 3.5 1 5 1.8 2.3 1.3 2.5 3.7 2.4 6-.1 2.4-.2 2.3 2.2 2 1.6-.2 2.5-.9 2.8-2.5.3-1.8 1-3.6 1.3-5.4.2-1.4.4-2.9-1.3-3.9-.7-.4.3-2 1.5-2.2 1.8-.5 3.5.4 4.5 2.3 1.2 2.1.7 4.2 0 6.3l-1.4 3.4c1 .4 1.8.8 2.6 1 2.1.7 1.9 4.8.4 6.2l-.8.1-4 .1c-1 0-1.6.5-2 1.3a74.4 74.4 0 0 1-4 6.4c-.4.6-.4.9 0 1.5 1.3 1.7 2.5 3.4 3.5 5.2 2.7 5.3 6.6 9.6 11.2 13.4 2.7 2.3 4.5 5 4.8 8.6 0 1.3-.4 1.6-1.6 1.4a15 15 0 0 1-12.5-9c-1.5-3.3-2.8-6.8-4.1-10.3-1-2.4-1.8-4.8-4.4-6.1-3.2-1.6-5.3-1.5-7.7 1a40.8 40.8 0 0 0-4.5 5.5 58.8 58.8 0 0 1-11.6 13.3c-1.8 1.5-3.7 2.8-6.3 2l-.8-.4Zm35.1-33.5-.3-.5c-1.4 0-3-.7-4-.2-1 .6-1.4 2.3-2 3.5l-.4 1.1v1.4c.2 1.9 2 1.6 3.1 2.3.1-.9 0-1.7.3-2.3 1-1.8 2.2-3.6 3.3-5.3Z" fill="#070717"/><path d="m356.9 181.7-4.2-11.8-3.1 3.2-2.7 3c-.6.7-1.4.6-1.5-.4a43 43 0 0 1-.5-5.3 5 5 0 0 1 1.2-3.3c.7-.8.8-2.1 1.3-3.1.2-.5.7-.8 1-1.2.4.5 1 .9 1.2 1.4.2 1 .2 2 .3 3.3 2.6-.9 5-1.6 7.2-2.7.7-.4.7-2 1.1-3l-2.8-.8c-1.7-.8-2.6-2.3-3.2-4-1-2.4-1-2.4 1.6-3 1.5-.2 3-.7 4.5-1.2 1.9-.6 2-1.4 1.2-3.1-.5-.9-.7-2-.5-3 .4-1.5 3-1.8 4.6-.7 1.2 1 1.6 2.2 2 3.6a3 3 0 0 0 1.2 1.8c1.5.8 3.3 3.7 3 5.3 0 .3-.5.6-1 .8-.5.2-1.3.2-1.9.5-1.8.7-3.4 1.5-3.6 3.8-.2 2.7-.8 5.3-1.3 8-.7 4-2 7.8-4.4 11.1-.1.3-.3.4-.7.8Zm1-16-.6-.2-4.3 4.2 2.5 1.6c.2.1.9 0 1-.3l1.3-5.2Z" fill="#070717"/><path d="m365.5 170 1.5.8-1.6-6.3c2.2 0 3.9 1 5 2.7 1.8 2 2.5 6.8 0 9.5-1 1.1-1.6 1.2-2.2-.1-1-2-1.8-4.2-2.7-6.6Z" fill="#020211"/><path d="M1282.2 125.6c-3.8 4.7-8 10-7.1 16.4.3 2.6 1.5 5.3 3.7 7 1.2.8 2.5 1.2 3.9 1.6 1.3.5 2.7 1 3.4 2.4 1.4 2.8-.3 6-2 8.1-2 2.5-4.4 4.7-5.2 7.9a7.4 7.4 0 0 0 0 4.3 6.4 6.4 0 0 0 2.6 3.2c1.3.8 2.6 1.6 3 3.3.3 1.7-.3 3.6-.7 5.3-1.3 6.7-2.2 13.7-5.2 19.8l-1.2 2.2c-.4.8.8 1.5 1.2.7 3.4-5.8 4.6-12.5 5.9-19l1.1-5.6c.3-1.6.5-3.4-.3-5-.6-1.4-2-2.1-3.1-3-1.2-.7-2-1.8-2.2-3.2-.4-3.2 1.7-5.9 3.6-8.2 2-2.2 4-4.7 4.3-8 .1-1.4-.1-2.9-1-4a6.8 6.8 0 0 0-3.5-2.4c-1.3-.4-2.7-.7-3.8-1.6a8 8 0 0 1-2.4-3c-2.6-5.9.9-11.8 4.4-16.3l1.5-2c.6-.6-.4-1.6-1-.9ZM1289.3 122.4a14.7 14.7 0 0 0 4.2 20.2c2.3 1.6 5.1 2 7.7 3.2 2.2 1 4.3 2.9 4 5.5-.5 2.6-2.5 4.6-4 6.5-1.6 2-2.8 4.4-2.5 7 .2 2.7 1.5 5.1 3.1 7.2 2 2.6 4.7 4.7 6.6 7.4 1.6 2.4 2.8 5.3 2 8.2-.2.9 1.2 1.2 1.4.4 1.5-5.7-2.9-10.3-6.4-14a20 20 0 0 1-4.8-6.8 9 9 0 0 1-.5-3.9c0-1.3.6-2.4 1.3-3.5 1.4-2 3.4-3.8 4.4-6.2 1-2.3 1-5-.9-6.9-1.8-2-4.5-2.7-7-3.6a13.3 13.3 0 0 1-7.5-20.1c.5-.7-.7-1.4-1.2-.6ZM1271 128.2c-3.3 2.2-6.8 4.8-7.5 9-.3 1.8 0 3.7 1.2 5.2s3 2.6 3.8 4.4c1.3 3.3-3.4 4.2-3.9 7-.1.8.1 1.6.6 2.3.6 1 1.1 1.8 1.4 3 .5 2.1.2 4.5-.1 6.7-.7 4-2.4 8.2-6.2 10-.8.3-.1 1.5.7 1.1 3.3-1.5 5.3-5 6.3-8.4.5-2 .8-4 .9-6 0-2.2-.2-4.5-1.4-6.4-.4-.7-1-1.4-.8-2.2.2-.6.6-1 1-1.4 1-1 2.3-1.8 2.8-3 .8-1.8-.1-3.7-1.3-5-1.2-1.6-3-2.7-3.6-4.7-.5-2 .3-4.3 1.5-6 1.4-1.8 3.4-3.1 5.3-4.4.7-.5 0-1.7-.7-1.2Z" fill="#0B0B1E"/><path d="M1308 46.7c6.4 22.8-7.5 56-34 63.4-26.5 7.4-55.6-13.8-62-36.5-4.5-16.5 2.7-33.8 17.1-45l41.1-11.4c18 2 33.3 13.1 37.8 29.5Z" fill="#020211"/><path d="M1270.7 24.6a35.1 35.1 0 0 0-7.3-5.5l-7.2 2c3.7.9 7.6 3.2 11.3 6.8a58.2 58.2 0 0 1 14.7 26c3 10.7 3.8 23.9 2.2 34.6-1.8 10.9-5.7 18-11 19.4-5.3 1.5-12.3-2.5-19.4-10.9-7-8.3-13-19.8-16-30.7-3.1-10.9-3.4-21.2-1-29.9 1.3-5 3.4-9 6.1-11.6l-7.2 2a35.6 35.6 0 0 0-3.4 8.4c-2.5 9.5-2.1 21 1 32.4a91.1 91.1 0 0 0 17 32.3c8.4 10 17 14.4 24.1 12.4 7.2-2 12.3-10.2 14.3-23 1.7-11.4.9-25-2.3-36.5a62.4 62.4 0 0 0-16-28.2Z" fill="#070717"/><path d="M1272 103c-12.7 3.6-20.2 7.2-20.2 7.2l5.1 18.5c.3 1 1.3 1.7 2.3 1.6h1.3l-3.1-11.3c-.1-.3.1-.7.5-.8.3-.1.7.1.8.5l3.2 11.5 2.6-.3-3.3-12a.7.7 0 0 1 1.3-.3l3.4 12.2 2.6-.3-3.5-12.6a.7.7 0 0 1 1.3-.3l3.6 12.7a91 91 0 0 0 2.5-.4l-3.6-13c-.1-.4 0-.8.5-.9.3 0 .7.1.8.5l3.7 13.1 2.5-.5-3.7-13.3a.7.7 0 1 1 1.3-.4l3.7 13.4 1.3-.4 1.2-.3-3.7-13.4c-.1-.3 0-.7.4-.8.4-.1.8.1.9.5l3.7 13.3a68 68 0 0 0 2.4-.9l-3.6-13.1c-.1-.4 0-.8.4-.9.4 0 .8.1.9.5l3.6 13 2.4-1-3.5-12.7c-.2-.3 0-.7.4-.8.4-.1.8 0 .9.5l3.5 12.5 2.4-1-3.5-12.2a.7.7 0 0 1 1.4-.4l3.3 12 2.3-1.2-3.2-11.5c0-.4.2-.7.5-.8.4-.1.8 0 .9.4l3.1 11.2 1.2-.6c.9-.5 1.4-1.6 1-2.6l-5-18.4s-8.4.7-21.2 4.3ZM1262 9.2l-30 8.4c-3 .8-4.8 4-4 7l1.2 4 41-11.4-1.2-4c-.8-3-4-4.8-7-4Zm-27.3 14.5a1.7 1.7 0 1 1-.9-3.2 1.7 1.7 0 0 1 1 3.2Zm5.6-1.6c-.8.3-1.8-.2-2-1.1-.3-1 .3-1.8 1.2-2 .8-.3 1.8.2 2 1 .3 1-.3 1.9-1.2 2.1Zm5.7-1.5c-1 .2-1.8-.3-2-1.2-.3-.9.2-1.8 1-2 1-.3 1.9.2 2.1 1.1.3.9-.3 1.8-1.1 2Zm5.6-1.6c-1 .2-1.8-.3-2-1.2-.3-.8.2-1.8 1-2 1-.3 1.9.3 2.1 1.1.3 1-.2 1.8-1.1 2Zm5.6-1.6c-1 .3-1.8-.2-2-1.1-.3-1 .2-1.8 1-2 1-.3 1.9.2 2.1 1 .3 1-.2 1.9-1.1 2.1Zm5.6-1.5c-.9.2-1.8-.3-2-1.2-.3-.9.2-1.8 1-2 1-.3 1.9.2 2.1 1.1.3.9-.2 1.8-1.1 2Z" fill="#0B0B1E"/><path d="m1248.2 79.4.4-1.2c1.9-2.6 2.7-5.6 3.3-8.7l2.4-11.8-.1-.6-.7-1.4-.5.9c-.8 1.7-2.3 2-3.5.5-.7-.9-1.3-2-1.9-3l.2-.6c1.9.1 3-1 4.2-2.2 1-.9 1-1 .3-2.1-.8-1.1-1.7-2.1-2.4-3.2-.5-.6-.8-1.3-1.1-2 1.2 0 2.2-.3 3.2-.2 1.7 0 2.5 1.4 3 2.8.7 1.4.6 1.4 1.8.5.9-.5 1.3-1.1 1-2.2-.4-1.1-.5-2.3-.8-3.5-.2-.9-.6-1.8-1.8-1.9-.5 0-.4-1.2.2-1.7 1-.8 2.1-.7 3.2.1 1.3 1 1.6 2.3 1.7 3.7l.2 2.4 1.8-.1c1.3-.2 2.3 2.3 1.8 3.5l-.3.3-2.3 1.1c-.6.3-.8.7-.8 1.3a51 51 0 0 1-.5 4.8c0 .5 0 .7.5 1 1.1.6 2.3 1.2 3.3 2 3 2.4 6.4 3.9 10 4.9 2.2.6 3.9 1.7 5 3.7.4.7.3 1-.5 1.2a9.3 9.3 0 0 1-9.5-1.8c-1.8-1.6-3.4-3.3-5.1-5-1.2-1.2-2.4-2.3-4.2-2.4-2.2 0-3.4.6-4 2.7a27 27 0 0 0-1 4.4 38 38 0 0 1-3 11c-.6 1.3-1.3 2.6-3 2.8h-.5Zm10.6-29.1-.3-.2c-.8.3-2 .4-2.3 1-.5.6-.2 1.7-.2 2.5l.1.8c0 .3.2.6.4.8.6 1 1.6.4 2.3.5-.1-.5-.4-1-.4-1.4 0-1.4.3-2.7.4-4Z" fill="#070717"/><path d="m1265.7 84.2-5.6-5.8-.9 2.7-.6 2.5c-.2.6-.7.7-1 .2l-1.8-3c-.3-.7-.4-1.4-.2-2.2.2-.7-.1-1.5-.1-2.2l.3-1c.3.2.8.2 1 .5.4.5.6 1.1 1 1.9 1.3-1.3 2.5-2.3 3.4-3.6.3-.4-.1-1.3-.2-2-.8 0-1.3.2-1.8.3-1.2 0-2.1-.7-3-1.5-1.1-1.2-1-1.2.2-2.2l2.2-1.9c.9-.9.8-1.3-.2-2.1a3 3 0 0 1-1-1.7c-.3-1 1.2-1.9 2.3-1.6 1 .2 1.5.8 2.1 1.5.3.4.8.7 1.2.7 1 .1 3 1.3 3.2 2.4l-.4.7c-.2.3-.6.5-1 .8-.7.9-1.4 1.8-1 3.2.7 1.6 1 3.3 1.5 5 .7 2.6 1 5.1.6 7.7l-.2.7Zm-3.8-9.6h-.4l-1.3 3.6 1.8.3c.2 0 .5-.3.5-.4l-.6-3.5Z" fill="#070717"/><path d="M1267.3 75h1.1c-1-1.1-1.8-2-2.6-3.2 1.3-.6 2.5-.4 3.6.2 1.5.8 3.2 3.4 2.6 5.6-.3 1-.6 1.1-1.3.5l-3.4-3Z" fill="#020211"/><defs><linearGradient id="a" x1="839" y1="161" x2="839" y2="693" gradientUnits="userSpaceOnUse"><stop stop-color="#080817" stop-opacity="0"/><stop offset="1" stop-color="#080817"/></linearGradient></defs></svg>
