<svg width="1679" height="684" viewBox="0 0 1679 684" fill="none" xmlns="http://www.w3.org/2000/svg"><path d="M.8 683.3s-10-78.6 91.6-107.1c0 0-20.8-75.5 52.4-127.2 73.1-51.6 147-5.4 165.4 23.7 0 0 83.2-152.4 253.4-53 170.1 99.5 101.6 263.7 101.6 263.7H.8Zm1677.4 0s10-78.6-91.6-107.1c0 0 20.8-75.5-52.4-127.2-73.1-51.6-147-5.4-165.4 23.7 0 0-83.2-152.4-253.4-53-170.1 99.5-101.6 263.7-101.6 263.7h664.4Z" fill="#020211"/><path d="M88.2 683.3s-1.6-30.4 26.4-47.2c28-16.8 64.8 0 64.8 0s2.8-20.8 27-13.4c0 0-18.2-43.6 13-77 34.9-37.2 81.7-11.2 81.7-11.2s-5-45.5 42.4-54c40-7.2 52.8 26.8 52.8 26.8s38.4-22.4 68.8 13.6 28 162.5 28 162.5H88.2Zm1501.6 0s1.7-30.4-26.4-47.2c-28-16.8-64.8 0-64.8 0s-2.8-20.8-27-13.4c0 0 18.3-43.6-13-77-34.8-37.2-81.6-11.2-81.6-11.2s5-45.5-42.4-54a45.9 45.9 0 0 0-52.8 26.8s-38.5-22.4-68.9 13.6c-30.4 36-28 162.5-28 162.5h405Z" fill="#050514"/><path d="M1388.3 642.2c-30-32.9-70.6-20.3-70.6-20.3-21.6-58.6-78.2-52.3-78.2-52.3-9-48.2-48.2-44-48.2-44s10-29.4-14.3-64.7c-27.5-40-74.3-33-74.3-33 0-38.4-32.1-44.7-32.1-44.7-9.1-55.1-54.6-45-54.6-45-20.3-20.3-50.8-14.6-50.8-14.6-46.8-24-62.4-82.1-67.3-125.5a59.7 59.7 0 0 0-118.7 0c-4.9 43.4-20.4 101.4-67.2 125.5 0 0-30.5-5.7-50.9 14.7 0 0-45.5-10.2-54.6 45 0 0-32 6.2-32 44.6 0 0-46.9-7-74.4 33-24.2 35.3-14.3 64.7-14.3 64.7s-39.1-4.2-48.2 44c0 0-56.6-6.3-78.2 52.3 0 0-40.5-12.5-70.5 20.3 0 0-71.3-27.3-97.8 41.2h1295c-26.6-68.4-97.9-41.2-97.9-41.2Z" fill="url(#a)"/><path d="m1438 331 4.2 7.8 7.8 4.2-7.8 4.2-4.2 7.8-4.2-7.8-7.8-4.2 7.8-4.2 4.2-7.8ZM537 264l3.2 5.8 5.8 3.2-5.8 3.2-3.2 5.8-3.2-5.8-5.8-3.2 5.8-3.2 3.2-5.8ZM257 174l2.8 5.2 5.2 2.8-5.2 2.8-2.8 5.2-2.8-5.2-5.2-2.8 5.2-2.8 2.8-5.2ZM1134 244l2.8 5.2 5.2 2.8-5.2 2.8-2.8 5.2-2.8-5.2-5.2-2.8 5.2-2.8 2.8-5.2ZM1159 124l1 2 2 1-2 1-1 2-1-2-2-1 2-1 1-2ZM634 258l1 2 2 1-2 1-1 2-1-2-2-1 2-1 1-2ZM382 315l1 2 2 1-2 1-1 2-1-2-2-1 2-1 1-2ZM492 142l1 2 2 1-2 1-1 2-1-2-2-1 2-1 1-2ZM601 148l1 2 2 1-2 1-1 2-1-2-2-1 2-1 1-2ZM1027 119l1 2 2 1-2 1-1 2-1-2-2-1 2-1 1-2ZM268 143l1 2 2 1-2 1-1 2-1-2-2-1 2-1 1-2ZM185 257l1 2 2 1-2 1-1 2-1-2-2-1 2-1 1-2ZM1271 296l1 2 2 1-2 1-1 2-1-2-2-1 2-1 1-2ZM1478 234l1 2 2 1-2 1-1 2-1-2-2-1 2-1 1-2ZM1636 372l1 2 2 1-2 1-1 2-1-2-2-1 2-1 1-2ZM271 341l4.6 8.4 8.4 4.6-8.4 4.6-4.6 8.4-4.6-8.4-8.4-4.6 8.4-4.6 4.6-8.4ZM1294 197l3.2 5.8 5.8 3.2-5.8 3.2-3.2 5.8-3.2-5.8-5.8-3.2 5.8-3.2 3.2-5.8Z" fill="#0A0A1F"/><path d="M1317 55a55 55 0 1 1 0-.9v.9Z" fill="#020211"/><path d="m1317 54.1-25 7.6-1.2.2a4.3 4.3 0 0 1-1.4-8.4l12.3-4.3a3.5 3.5 0 0 0-2.3-6.7l-25.9 8.3-1.3.2c-1.7 0-3.3-1-4-2.6a4.4 4.4 0 0 1 2.7-6l14-4.3a4.4 4.4 0 0 0 2.8-5.7 4.4 4.4 0 0 0-5.5-2.8l-26.6 8.8-1.7.3a5.3 5.3 0 0 1-1.6-10.4l46-14.7a54.8 54.8 0 0 1 18.7 40.5ZM1259 80.3a5.1 5.1 0 0 1-2.8 6.9l-28.3 11a55 55 0 0 1-20.8-40l26.2-9.6a4.5 4.5 0 0 1 3.5 8.3l-11 5.2a3.5 3.5 0 0 0-1.8 4.3l.1.2a4.8 4.8 0 0 0 6.2 2.9l24.9-9.2c1.7-.7 3.7.2 4.4 2l.2.3c.7 1.8 0 3.9-1.8 4.7l-12.5 5.4c-1.8.8-2.6 2.9-1.8 4.7a3.5 3.5 0 0 0 4.5 1.8l4.3-1.6c2.5-1 5.4.2 6.5 2.7Z" fill="#070717"/><path d="M464.5 151a57 57 0 1 1-114 0 57 57 0 0 1 114 0Z" fill="#020211"/><path d="M453 128.6a57 57 0 0 1-100.7 36.7A56.8 56.8 0 0 1 407.5 94a57 57 0 0 1 43.6 20.3 57 57 0 0 1 1.8 14.3Z" fill="#080816"/><path d="M392.1 143.8a10 10 0 1 0 0-19.8 10 10 0 0 0 0 19.8ZM420.8 164.2a7.3 7.3 0 1 0 0-14.5 7.3 7.3 0 0 0 0 14.5ZM427.5 132.7a7.3 7.3 0 1 0 0-14.7 7.3 7.3 0 0 0 0 14.7Z" fill="#020211"/><path d="M488.3 180.2c-1.3 3.6-4.3 6.2-8.5 7.8a45.5 45.5 0 0 1-16.2 2.4c-17.9 0-42.5-5.9-65.3-14a237 237 0 0 1-52.5-25.9c-15.6-10.8-22-20.4-19-28.7 3.4-9.7 18.9-11.7 38.6-9.2-3 3.2-5.5 6.7-7.6 10.5l-7.5-.3c-7.9 0-12.4 1.2-13 2.9-.3.8 1.4 6.2 15 15.6a225.5 225.5 0 0 0 49.9 24.4c45.6 16.5 74 14.9 75.5 10.6v-.2c0-1.3-2.2-6.4-14.1-14.8a56.3 56.3 0 0 0 .9-13l4.7 3.1c15.7 10.9 22 20.5 19.1 28.8Z" fill="#0B0B1E"/><defs><linearGradient id="a" x1="838.5" y1="145" x2="838.5" y2="683.4" gradientUnits="userSpaceOnUse"><stop stop-color="#080817" stop-opacity="0"/><stop offset="1" stop-color="#080817"/></linearGradient></defs></svg>