<svg width="20" height="20" viewBox="0 0 20 20" fill="none" xmlns="http://www.w3.org/2000/svg">
<g clip-path="url(#clip0_734_19033)">
<path d="M6.39453 1.61783V8.34712C6.39504 8.43347 6.41941 8.518 6.46495 8.59133C6.51048 8.66465 6.57539 8.72391 6.65249 8.76253C6.72959 8.80115 6.81585 8.81763 6.90172 8.81013C6.98759 8.80262 7.06971 8.77144 7.13898 8.72004L7.72231 8.28032C7.80336 8.2223 7.90048 8.19111 8.00009 8.19111C8.0997 8.19111 8.19682 8.2223 8.27786 8.28032L8.83342 8.72004C8.90228 8.77994 8.98714 8.81832 9.07754 8.83044C9.16793 8.84255 9.25988 8.82786 9.34203 8.78819C9.42418 8.74852 9.49293 8.6856 9.53978 8.60721C9.58663 8.52882 9.60952 8.4384 9.60564 8.34712V1.61783C9.60638 1.55158 9.59399 1.48584 9.56919 1.42442C9.54439 1.363 9.50768 1.30712 9.46117 1.26001C9.41467 1.2129 9.3593 1.17551 9.29828 1.14999C9.23725 1.12446 9.17177 1.11132 9.10564 1.11133H6.88342C6.75225 1.11566 6.6279 1.17093 6.53666 1.26546C6.44543 1.35998 6.39446 1.48634 6.39453 1.61783V1.61783Z" fill="#F0C846"/>
<path d="M16.9886 18.5334C17.109 18.3598 17.1635 18.1488 17.1421 17.9385C17.1207 17.7282 17.0248 17.5325 16.8719 17.3868C16.7195 17.2551 16.5974 17.0918 16.514 16.9083C16.4306 16.7248 16.3878 16.5254 16.3886 16.3237C16.3867 16.1219 16.4289 15.9221 16.5124 15.7384C16.596 15.5547 16.7187 15.3916 16.8719 15.2606C16.9594 15.1789 17.0289 15.0797 17.0757 14.9695C17.1226 14.8592 17.1459 14.7404 17.1441 14.6205V2.22506C17.1441 1.92982 17.0271 1.64668 16.8187 1.43791C16.6103 1.22915 16.3277 1.11186 16.033 1.11186H12.0552C11.8932 1.11186 11.7377 1.17637 11.6231 1.29119C11.5085 1.40601 11.4441 1.56174 11.4441 1.72412C11.4441 1.8865 11.5085 2.04224 11.6231 2.15706C11.7377 2.27188 11.8932 2.33638 12.0552 2.33638H15.9441V14.0528H5.55523C5.21367 14.0522 4.87677 14.1323 4.5719 14.2866V1.72412C4.5719 1.55953 4.50663 1.40167 4.39047 1.28529C4.2743 1.1689 4.11674 1.10352 3.95245 1.10352C3.78817 1.10352 3.63061 1.1689 3.51444 1.28529C3.39827 1.40167 3.33301 1.55953 3.33301 1.72412V16.6966C3.33301 17.2871 3.56713 17.8534 3.98388 18.2709C4.40063 18.6885 4.96586 18.923 5.55523 18.923H16.283C16.4234 18.9207 16.5611 18.8839 16.6841 18.816C16.807 18.7481 16.9116 18.6511 16.9886 18.5334V18.5334ZM5.55523 17.6596C5.29537 17.664 5.0443 17.5653 4.85692 17.3848C4.66953 17.2044 4.56107 16.957 4.55523 16.6966V16.2792C4.55297 16.147 4.5773 16.0157 4.62675 15.8931C4.67621 15.7706 4.74979 15.6592 4.8431 15.5657C4.93641 15.4722 5.04755 15.3985 5.16989 15.349C5.29224 15.2994 5.42329 15.2751 5.55523 15.2773H15.3775C15.2166 15.6601 15.1489 16.0757 15.1798 16.4899C15.2107 16.9041 15.3394 17.305 15.5552 17.6596H5.55523Z" fill="white"/>
</g>
<defs>
<clipPath id="clip0_734_19033">
<rect width="13.8111" height="17.7778" fill="white" transform="translate(3.33301 1.11133)"/>
</clipPath>
</defs>
</svg>
