<svg width="24" height="24" viewBox="0 0 24 24" fill="none" xmlns="http://www.w3.org/2000/svg"><path d="M4.997 11.424c0-.554.455-1.009 1.009-1.009h1.7c.554 0 1.029.455 1.029 1.029v6.406a9.3 9.3 0 01.712-.178.867.867 0 00.652-.83v-7.95c0-.553.455-1.027 1.028-1.027h1.7c.555 0 1.03.454 1.03 1.028v7.375l.83-.356a.845.845 0 00.514-.79v-8.8c0-.553.454-1.028 1.008-1.028h1.7c.554 0 1.01.455 1.01 1.028v7.237c1.462-1.067 2.965-2.353 4.152-3.895a1.665 1.665 0 00.257-1.602C21.153 1.814 14.31-1.508 8.062.667 1.814 2.842-1.508 9.684.667 15.932c.237.712.554 1.385.93 2.037.296.514.85.81 1.443.751.316-.02.712-.059 1.206-.118a.84.84 0 00.751-.85v-6.328zm-.04 10.279c5.359 3.896 12.853 2.71 16.748-2.65A12.086 12.086 0 0024 11.996c0-.277-.02-.554-.04-.83-4.35 6.544-12.457 9.61-19.002 10.538z" fill="#8149BF"></path></svg>