<svg width="24" height="24" viewBox="0 0 24 24" fill="none" xmlns="http://www.w3.org/2000/svg"><path fill-rule="evenodd" clip-rule="evenodd" d="M0 5.333C0 2.4 2.4 0 5.333 0h13.334C21.6 0 24 2.4 24 5.333v13.334C24 21.6 21.6 24 18.667 24H5.333C2.4 24 0 21.6 0 18.667V5.333zm12 4A2.674 2.674 0 009.333 12c0 1.467 1.2 2.667 2.667 2.667 1.467 0 2.667-1.2 2.667-2.667 0-1.467-1.2-2.667-2.667-2.667zM6.667 12c0-2.933 2.4-5.333 5.333-5.333 2.933 0 5.333 2.4 5.333 5.333 0 2.933-2.4 5.333-5.333 5.333-2.933 0-5.333-2.4-5.333-5.333zm12.666-6c.8 0 1.334-.533 1.334-1.333 0-.8-.534-1.334-1.334-1.334S18 3.867 18 4.667 18.667 6 19.333 6z" fill="#8149BF"></path></svg>