<svg width="25" height="24" viewBox="0 0 25 24" fill="none" xmlns="http://www.w3.org/2000/svg">
<g clip-path="url(#clip0_540_271521)">
<path d="M12.9296 14.9273C13.5818 14.9273 14.2276 14.7989 14.8302 14.5493C15.4328 14.2997 15.9803 13.9338 16.4415 13.4726C16.9027 13.0114 17.2686 12.4639 17.5182 11.8613C17.7678 11.2587 17.8962 10.6129 17.8962 9.96065V6.30065C17.8962 4.98341 17.373 3.72012 16.4415 2.78869C15.5101 1.85726 14.2468 1.33398 12.9296 1.33398C11.6123 1.33398 10.349 1.85726 9.41759 2.78869C8.48616 3.72012 7.96289 4.98341 7.96289 6.30065V9.96065C7.96289 11.2779 8.48616 12.5412 9.41759 13.4726C10.349 14.404 11.6123 14.9273 12.9296 14.9273V14.9273Z" fill="#F0C846" fill-opacity="1"/>
<path d="M12.1961 18.5678V21.1545H6.53605C6.34156 21.1545 6.15504 21.2318 6.01751 21.3693C5.87998 21.5068 5.80272 21.6933 5.80272 21.8878C5.80272 22.0823 5.87998 22.2689 6.01751 22.4064C6.15504 22.5439 6.34156 22.6212 6.53605 22.6212H19.3227C19.5172 22.6212 19.7037 22.5439 19.8413 22.4064C19.9788 22.2689 20.0561 22.0823 20.0561 21.8878C20.0561 21.6933 19.9788 21.5068 19.8413 21.3693C19.7037 21.2318 19.5172 21.1545 19.3227 21.1545H13.6694V18.5678C15.6633 18.3941 17.5356 17.5355 18.9683 16.138C20.4011 14.7405 21.306 12.8901 21.5294 10.9012C21.5349 10.7151 21.4701 10.5338 21.3478 10.3934C21.2256 10.253 21.055 10.1639 20.87 10.1437C20.6849 10.1235 20.4991 10.1738 20.3495 10.2845C20.1999 10.3953 20.0975 10.5583 20.0627 10.7412C19.876 12.5011 19.0447 14.1297 17.7289 15.3133C16.4131 16.4968 14.7059 17.1517 12.9361 17.1517C11.1663 17.1517 9.45904 16.4968 8.14324 15.3133C6.82744 14.1297 5.99611 12.5011 5.80939 10.7412C5.79271 10.5585 5.70815 10.3886 5.57238 10.2652C5.43662 10.1418 5.25953 10.0737 5.07605 10.0745C4.97049 10.0716 4.86554 10.0917 4.76853 10.1334C4.67152 10.1751 4.58478 10.2375 4.51434 10.3162C4.4439 10.3949 4.39146 10.488 4.36067 10.589C4.32988 10.69 4.32148 10.7966 4.33605 10.9012C4.55943 12.8901 5.46433 14.7405 6.89709 16.138C8.32985 17.5355 10.2021 18.3941 12.1961 18.5678V18.5678Z" fill="white" fill-opacity="1"/>
</g>
<defs>
<clipPath id="clip0_540_271521">
<rect width="17.1867" height="21.2867" fill="white" transform="translate(4.33594 1.33398)"/>
</clipPath>
</defs>
</svg>
