<svg width="25" height="24" viewBox="0 0 25 24" fill="none" xmlns="http://www.w3.org/2000/svg">
<g clip-path="url(#clip0_540_271518)">
<path d="M4.44531 4.00065V9.45398C4.44531 9.64848 4.52257 9.835 4.6601 9.97253C4.79763 10.1101 4.98415 10.1873 5.17865 10.1873C5.37314 10.1873 5.55966 10.1101 5.69719 9.97253C5.83472 9.835 5.91198 9.64848 5.91198 9.45398V4.00065C5.90927 3.84232 5.93846 3.68506 5.99781 3.53825C6.05716 3.39143 6.14545 3.25807 6.25742 3.14609C6.36939 3.03412 6.50276 2.94583 6.64958 2.88648C6.79639 2.82713 6.95365 2.79794 7.11198 2.80065H13.5586V8.13398C13.5586 8.32848 13.6359 8.515 13.7734 8.65253C13.911 8.79006 14.0975 8.86732 14.292 8.86732H19.5386V20.0007C19.5386 20.3118 19.415 20.6103 19.195 20.8303C18.9749 21.0504 18.6765 21.174 18.3653 21.174H7.11198C6.95567 21.1775 6.80022 21.1498 6.65477 21.0924C6.50932 21.0351 6.37681 20.9492 6.26501 20.8399C6.15322 20.7306 6.0644 20.6 6.00377 20.4559C5.94315 20.3118 5.91194 20.157 5.91198 20.0007V19.2007C5.91198 19.0062 5.83472 18.8196 5.69719 18.6821C5.55966 18.5446 5.37314 18.4673 5.17865 18.4673C4.98415 18.4673 4.79763 18.5446 4.6601 18.6821C4.52257 18.8196 4.44531 19.0062 4.44531 19.2007L4.44531 20.0007C4.44531 20.7079 4.72626 21.3862 5.22636 21.8863C5.72646 22.3864 6.40474 22.6673 7.11198 22.6673H18.3453C19.0526 22.6673 19.7308 22.3864 20.2309 21.8863C20.731 21.3862 21.012 20.7079 21.012 20.0007V8.51398C21.0124 7.80263 20.7321 7.11984 20.232 6.61399L15.7053 2.12065C15.4572 1.87109 15.1622 1.6731 14.8373 1.53809C14.5123 1.40307 14.1639 1.33371 13.812 1.33399H7.11198C6.40474 1.33399 5.72646 1.61494 5.22636 2.11503C4.72626 2.61513 4.44531 3.29341 4.44531 4.00065H4.44531ZM18.9053 7.40065H15.0053V3.49398L18.9053 7.40065Z" fill="white"/>
<path d="M13.8053 12.375H5.50531C4.91989 12.375 4.44531 12.8496 4.44531 13.435V15.2017C4.44531 15.7871 4.91989 16.2617 5.50531 16.2617H13.8053C14.3907 16.2617 14.8653 15.7871 14.8653 15.2017V13.435C14.8653 12.8496 14.3907 12.375 13.8053 12.375Z" fill="#000"/>
</g>
<defs>
<clipPath id="clip0_540_271518">
<rect width="16.54" height="21.2933" fill="white" transform="translate(4.44531 1.33398)"/>
</clipPath>
</defs>
</svg>
