<svg width="21" height="20" viewBox="0 0 21 20" fill="none" xmlns="http://www.w3.org/2000/svg">
<path fill-rule="evenodd" clip-rule="evenodd" d="M0.756836 0.967306C0.756836 0.451146 1.17527 0.0327148 1.69143 0.0327148H11.0373C11.2852 0.0327148 11.5229 0.13118 11.6982 0.30645L19.7283 8.33656C20.2505 8.86188 20.5436 9.5725 20.5436 10.3132C20.5436 11.0539 20.2505 11.7646 19.7283 12.2899L19.0655 11.631L19.7263 12.2918L13.0257 18.9925C13.0256 18.9926 13.0258 18.9924 13.0257 18.9925C12.7654 19.253 12.4559 19.4601 12.1157 19.6011C11.7753 19.7422 11.4105 19.8148 11.042 19.8148C10.6736 19.8148 10.3087 19.7422 9.96834 19.6011C9.62805 19.46 9.3189 19.2533 9.05854 18.9927C9.05848 18.9926 9.05861 18.9928 9.05854 18.9927L1.03096 10.9745C0.855451 10.7992 0.756836 10.5613 0.756836 10.3132V0.967306ZM18.4027 10.9721C18.4029 10.9718 18.4032 10.9715 18.4035 10.9712C18.5771 10.7962 18.6744 10.5597 18.6744 10.3132C18.6744 10.0667 18.5771 9.83022 18.4035 9.6552C18.4032 9.65491 18.4029 9.65462 18.4027 9.65433L10.6502 1.9019H2.62602V9.92578L10.38 17.6708L10.3808 17.6715C10.4676 17.7584 10.5707 17.8274 10.6841 17.8744C10.7976 17.9214 10.9192 17.9456 11.042 17.9456C11.1648 17.9456 11.2865 17.9214 11.3999 17.8744C11.5134 17.8274 11.6164 17.7584 11.7032 17.6715L18.4027 10.9721Z" fill="#F0C846"/>
</svg>
