<svg width="25" height="24" viewBox="0 0 25 24" fill="none" xmlns="http://www.w3.org/2000/svg">
<path fill-rule="evenodd" clip-rule="evenodd" d="M5.87974 4.58984C5.29248 4.58984 4.81641 5.06591 4.81641 5.65318V18.3465C4.81641 18.9338 5.29248 19.4098 5.87974 19.4098H18.5731C19.1603 19.4098 19.6364 18.9338 19.6364 18.3465V5.65318C19.6364 5.06591 19.1603 4.58984 18.5731 4.58984H5.87974ZM3.31641 5.65318C3.31641 4.23749 4.46405 3.08984 5.87974 3.08984H18.5731C19.9888 3.08984 21.1364 4.23749 21.1364 5.65318V18.3465C21.1364 19.7622 19.9888 20.9098 18.5731 20.9098H5.87974C4.46405 20.9098 3.31641 19.7622 3.31641 18.3465V5.65318Z" fill="#fff"/>
<path d="M9.34625 10.5597C10.1415 10.5597 10.7863 9.91498 10.7863 9.11969C10.7863 8.3244 10.1415 7.67969 9.34625 7.67969C8.55096 7.67969 7.90625 8.3244 7.90625 9.11969C7.90625 9.91498 8.55096 10.5597 9.34625 10.5597Z" fill="#F0C846"/>
<path fill-rule="evenodd" clip-rule="evenodd" d="M9.34625 8.67969C9.10324 8.67969 8.90625 8.87668 8.90625 9.11969C8.90625 9.36269 9.10324 9.55969 9.34625 9.55969C9.58926 9.55969 9.78625 9.36269 9.78625 9.11969C9.78625 8.87668 9.58926 8.67969 9.34625 8.67969ZM6.90625 9.11969C6.90625 7.77211 7.99868 6.67969 9.34625 6.67969C10.6938 6.67969 11.7863 7.77211 11.7863 9.11969C11.7863 10.4673 10.6938 11.5597 9.34625 11.5597C7.99868 11.5597 6.90625 10.4673 6.90625 9.11969Z" fill="#F0C846"/>
<path fill-rule="evenodd" clip-rule="evenodd" d="M15.3642 10.0221C15.6551 9.74002 16.1175 9.74002 16.4084 10.0221L20.9084 14.3858C21.2058 14.6741 21.2131 15.1489 20.9248 15.4463C20.6364 15.7437 20.1616 15.751 19.8642 15.4626L15.8863 11.6053L6.50844 20.699C6.21107 20.9873 5.73626 20.98 5.4479 20.6827C5.15955 20.3853 5.16686 19.9105 5.46422 19.6221L15.3642 10.0221Z" fill="#fff"/>
</svg>
