<svg width="20" height="20" viewBox="0 0 20 20" fill="none" xmlns="http://www.w3.org/2000/svg">
<path fill-rule="evenodd" clip-rule="evenodd" d="M8.40483 1.32692C8.53858 1.02598 8.83702 0.832031 9.16634 0.832031C10.0504 0.832031 10.8982 1.18322 11.5234 1.80834C12.1485 2.43346 12.4997 3.28131 12.4997 4.16536V6.66536H16.3787C16.7394 6.66203 17.0965 6.73675 17.4255 6.88444C17.7562 7.03283 18.0506 7.25134 18.2884 7.52481C18.5262 7.79829 18.7017 8.12019 18.8027 8.46823C18.9038 8.81627 18.928 9.18211 18.8736 9.54042L17.7236 17.0403C17.7236 17.0405 17.7236 17.0401 17.7236 17.0403C17.6331 17.6362 17.3302 18.18 16.871 18.5703C16.4129 18.9597 15.8298 19.1709 15.2287 19.1654H3.33301C2.66997 19.1654 2.03408 18.902 1.56524 18.4331C1.0964 17.9643 0.833008 17.3284 0.833008 16.6654V10.832C0.833008 10.169 1.0964 9.53311 1.56524 9.06426C2.03408 8.59542 2.66997 8.33203 3.33301 8.33203H5.29145L8.40483 1.32692ZM6.66634 9.34221L9.67287 2.57753C9.92402 2.65766 10.155 2.79698 10.3449 2.98685C10.6574 3.29941 10.833 3.72334 10.833 4.16536V7.4987C10.833 7.95894 11.2061 8.33203 11.6663 8.33203H16.383L16.3924 8.33198C16.5132 8.33061 16.6329 8.35552 16.7431 8.40498C16.8533 8.45445 16.9514 8.52728 17.0307 8.61844C17.11 8.7096 17.1685 8.8169 17.2022 8.93292C17.2358 9.04882 17.2439 9.17065 17.2258 9.28998C17.2258 9.28987 17.2258 9.29009 17.2258 9.28998L16.0758 16.7904C16.0456 16.9891 15.9447 17.1703 15.7916 17.3004C15.6384 17.4306 15.4434 17.501 15.2424 17.4987L6.66634 17.4987V9.34221ZM4.99967 17.4987V9.9987H3.33301C3.11199 9.9987 2.90003 10.0865 2.74375 10.2428C2.58747 10.3991 2.49967 10.611 2.49967 10.832V16.6654C2.49967 16.8864 2.58747 17.0983 2.74375 17.2546C2.90003 17.4109 3.11199 17.4987 3.33301 17.4987H4.99967Z" fill="white"/>
</svg>
