<svg width="21" height="21" viewBox="0 0 21 21" fill="none" xmlns="http://www.w3.org/2000/svg">
<path fill-rule="evenodd" clip-rule="evenodd" d="M8.85418 0.587733C9.00418 0.250226 9.33888 0.0327148 9.70822 0.0327148C10.6997 0.0327148 11.6506 0.426577 12.3516 1.12766C13.0527 1.82874 13.4466 2.7796 13.4466 3.77108V6.57485H17.797C18.2014 6.57111 18.6019 6.65492 18.971 6.82055C19.3418 6.98697 19.672 7.23203 19.9387 7.53873C20.2054 7.84544 20.4022 8.20646 20.5155 8.59679C20.6289 8.98712 20.656 9.39741 20.595 9.79926L19.3053 18.2105C19.3052 18.2107 19.3053 18.2102 19.3053 18.2105C19.2037 18.8787 18.8641 19.4886 18.349 19.9264C17.8353 20.3631 17.1813 20.6 16.5072 20.5937H3.16608C2.42247 20.5937 1.70932 20.2983 1.18351 19.7725C0.657701 19.2467 0.362305 18.5336 0.362305 17.79V11.2478C0.362305 10.5042 0.657701 9.79105 1.18351 9.26524C1.70932 8.73944 2.42247 8.44404 3.16608 8.44404H5.36249L8.85418 0.587733ZM6.90444 9.57696L10.2763 1.99031C10.558 2.08017 10.817 2.23643 11.0299 2.44937C11.3805 2.79991 11.5774 3.27534 11.5774 3.77108V7.50945C11.5774 8.02561 11.9958 8.44404 12.512 8.44404H17.8018L17.8124 8.44398C17.9478 8.44244 18.082 8.47038 18.2056 8.52586C18.3292 8.58133 18.4393 8.66301 18.5282 8.76525C18.6171 8.86749 18.6827 8.98783 18.7205 9.11794C18.7582 9.24792 18.7673 9.38456 18.747 9.51839C18.747 9.51826 18.747 9.51851 18.747 9.51839L17.4572 17.9302C17.4234 18.1531 17.3102 18.3562 17.1385 18.5022C16.9667 18.6482 16.748 18.7272 16.5226 18.7246L6.90444 18.7245V9.57696ZM5.03526 18.7245V10.3132H3.16608C2.91821 10.3132 2.68049 10.4117 2.50522 10.587C2.32995 10.7622 2.23149 10.9999 2.23149 11.2478V17.79C2.23149 18.0378 2.32995 18.2755 2.50522 18.4508C2.68049 18.6261 2.91821 18.7245 3.16608 18.7245H5.03526Z" fill="#F0C846"/>
</svg>
