<svg width="29" height="24" viewBox="0 0 29 24" fill="none" xmlns="http://www.w3.org/2000/svg"><path fill-rule="evenodd" clip-rule="evenodd" d="M25.89 6l2.735-3c.431-.45 0-1.35-.576-1.2l-3.311.45C23.586.9 22.003 0 20.132 0c-3.167 0-5.758 2.7-5.758 6 0 .75.144 1.5.432 2.25C10.487 8.1 5.88 7.2 3.578 2.4c-.288-.6-1.152-.6-1.296 0C.555 8.25 3.434 15.9 10.055 18c-1.583 1.65-5.902 2.1-9.212 1.8-.72 0-1.152.75-.576 1.2 2.879 2.55 6.91 3 10.508 3 9.357 0 15.834-8.25 15.115-18z" fill="#8149BF"></path></svg>