<svg width="21" height="20" viewBox="0 0 21 20" fill="none" xmlns="http://www.w3.org/2000/svg">
<path fill-rule="evenodd" clip-rule="evenodd" d="M2.06524 3.23223C2.53408 2.76339 3.16997 2.5 3.83301 2.5H9.66634C10.1266 2.5 10.4997 2.8731 10.4997 3.33333C10.4997 3.79357 10.1266 4.16667 9.66634 4.16667H3.83301C3.61199 4.16667 3.40003 4.25446 3.24375 4.41074C3.08747 4.56702 2.99967 4.77899 2.99967 5V16.6667C2.99967 16.8877 3.08747 17.0996 3.24375 17.2559C3.40003 17.4122 3.61199 17.5 3.83301 17.5H15.4997C15.7207 17.5 15.9326 17.4122 16.0889 17.2559C16.2452 17.0996 16.333 16.8877 16.333 16.6667V10.8333C16.333 10.3731 16.7061 10 17.1663 10C17.6266 10 17.9997 10.3731 17.9997 10.8333V16.6667C17.9997 17.3297 17.7363 17.9656 17.2674 18.4344C16.7986 18.9033 16.1627 19.1667 15.4997 19.1667H3.83301C3.16997 19.1667 2.53408 18.9033 2.06524 18.4344C1.5964 17.9656 1.33301 17.3297 1.33301 16.6667V5C1.33301 4.33696 1.5964 3.70107 2.06524 3.23223Z" fill="white"/>
<path fill-rule="evenodd" clip-rule="evenodd" d="M17.1664 2.39909C16.9185 2.39909 16.6809 2.49754 16.5056 2.67278L8.75216 10.4262L8.31167 12.1882L10.0737 11.7477L17.8271 3.99427C18.0023 3.81903 18.1008 3.58135 18.1008 3.33352C18.1008 3.0857 18.0023 2.84802 17.8271 2.67278C17.6519 2.49754 17.4142 2.39909 17.1664 2.39909ZM15.3271 1.49427C15.8149 1.00647 16.4765 0.732422 17.1664 0.732422C17.8562 0.732422 18.5178 1.00647 19.0056 1.49427C19.4934 1.98207 19.7675 2.64367 19.7675 3.33352C19.7675 4.02338 19.4934 4.68498 19.0056 5.17278L11.0889 13.0894C10.9821 13.1962 10.8483 13.272 10.7018 13.3086L7.36847 14.142C7.08449 14.213 6.78409 14.1298 6.5771 13.9228C6.37012 13.7158 6.28691 13.4154 6.35791 13.1314L7.19124 9.79808C7.22787 9.65155 7.30364 9.51773 7.41044 9.41093L15.3271 1.49427Z" fill="white"/>
</svg>
