<svg width="24" height="24" viewBox="0 0 24 24" fill="none" xmlns="http://www.w3.org/2000/svg"><path d="M0 10.928c.203-.498.572-.76.977-.949 1.607-.748 3.218-1.486 4.828-2.226C11.32 5.22 16.835 2.687 22.351.157c.13-.06.267-.115.405-.139.739-.125 1.265.404 1.243 1.344-.013.611-.127 1.224-.235 1.826-1.133 6.4-2.272 12.8-3.416 19.198-.059.325-.15.653-.277.948-.246.571-.67.786-1.182.601a2.276 2.276 0 01-.712-.405c-1.72-1.495-3.432-3.006-5.147-4.511l-.223-.192c-.068.072-.132.136-.193.205-.876 1.003-1.753 2.006-2.627 3.012-.26.298-.557.473-.956.465l.067-1.2c.105-1.758.207-3.516.32-5.272a.667.667 0 01.157-.374c3.321-3.589 6.648-7.17 9.974-10.753.023-.025.055-.045.069-.075.062-.14.12-.282.18-.422-.143-.034-.293-.117-.427-.088-.162.035-.32.147-.463.255-4.139 3.102-8.276 6.209-12.416 9.309-.091.068-.238.106-.337.07-1.76-.646-3.518-1.305-5.276-1.96-.356-.134-.68-.325-.878-.732v-.338L0 10.928z" fill="#8149BF"></path></svg>