<svg width="25" height="24" viewBox="0 0 25 24" fill="none" xmlns="http://www.w3.org/2000/svg">
<g clip-path="url(#clip0_600_288217)">
<path d="M9.6529 12.4327C9.73006 12.5076 9.78795 12.6001 9.82161 12.7023C9.85528 12.8044 9.86372 12.9132 9.84623 13.0194L9.51956 14.906C9.4974 15.0301 9.51089 15.158 9.55846 15.2748C9.60604 15.3916 9.68575 15.4924 9.78836 15.5657C9.89096 15.639 10.0122 15.6817 10.1381 15.6888C10.264 15.696 10.3893 15.6673 10.4996 15.606L12.1996 14.7127C12.2943 14.6636 12.3995 14.638 12.5062 14.638C12.613 14.638 12.7181 14.6636 12.8129 14.7127L14.4996 15.606C14.6092 15.6617 14.7321 15.6859 14.8547 15.6761C14.9773 15.6662 15.0947 15.6227 15.1941 15.5502C15.2934 15.4778 15.3708 15.3793 15.4177 15.2656C15.4645 15.1519 15.479 15.0274 15.4596 14.906L15.1396 13.0194C15.1212 12.9138 15.1286 12.8053 15.1611 12.7032C15.1936 12.6011 15.2503 12.5083 15.3262 12.4327L16.6996 11.0994C16.7785 11.0109 16.8324 10.9029 16.8557 10.7866C16.879 10.6704 16.8709 10.55 16.8322 10.4379C16.7935 10.3258 16.7255 10.2261 16.6354 10.149C16.5453 10.0719 16.4363 10.0203 16.3196 9.99936L14.4262 9.72603C14.3167 9.70732 14.2136 9.66154 14.1263 9.59285C14.039 9.52415 13.9702 9.43473 13.9262 9.33269L13.0796 7.61269C13.0236 7.50349 12.9386 7.41185 12.8339 7.34785C12.7292 7.28386 12.6089 7.25 12.4862 7.25C12.3635 7.25 12.2432 7.28386 12.1385 7.34785C12.0338 7.41185 11.9488 7.50349 11.8929 7.61269L11.0462 9.33269C10.998 9.4285 10.9274 9.51125 10.8403 9.57392C10.7533 9.63659 10.6524 9.67734 10.5462 9.69269L8.6529 9.99936C8.5308 10.0182 8.41634 10.0706 8.32229 10.1507C8.22823 10.2308 8.15829 10.3355 8.12026 10.453C8.08223 10.5706 8.07761 10.6964 8.10692 10.8164C8.13623 10.9364 8.19831 11.0459 8.28623 11.1327L9.6529 12.4327Z" fill="black"/>
<path d="M2.79249 16.4198C3.16467 16.558 3.50266 16.7749 3.78338 17.0556C4.06411 17.3363 4.28097 17.6743 4.41916 18.0465C4.52492 18.3341 4.71812 18.5813 4.97161 18.7535C5.2251 18.9257 5.52615 19.0142 5.83249 19.0065H19.1658C19.4656 19.0068 19.7582 18.9149 20.0039 18.7431C20.2496 18.5714 20.4365 18.3281 20.5392 18.0465C20.6777 17.6734 20.8954 17.3348 21.1774 17.054C21.4594 16.7732 21.7989 16.5568 22.1725 16.4198C22.4598 16.3198 22.7094 16.1336 22.8871 15.8867C23.0649 15.6398 23.1622 15.344 23.1658 15.0398V8.66648C23.1647 8.36623 23.0722 8.07343 22.9008 7.82695C22.7293 7.58047 22.4869 7.39197 22.2058 7.28648C21.8322 7.14948 21.4927 6.93313 21.2107 6.65231C20.9288 6.37149 20.711 6.03288 20.5725 5.65981C20.4736 5.36651 20.284 5.11222 20.0312 4.93368C19.7784 4.75513 19.4753 4.66156 19.1658 4.66648H5.83249C5.52615 4.65879 5.2251 4.74725 4.97161 4.91943C4.71812 5.09161 4.52492 5.33887 4.41916 5.62648C4.28097 5.99866 4.06411 6.33664 3.78338 6.61737C3.50266 6.89809 3.16467 7.11495 2.79249 7.25314C2.50489 7.35891 2.25763 7.5521 2.08545 7.80559C1.91326 8.05908 1.82481 8.36014 1.83249 8.66648V15.0731C1.83849 15.3681 1.93332 15.6544 2.10458 15.8947C2.27585 16.1349 2.51559 16.3179 2.79249 16.4198ZM3.29916 8.66648C3.88051 8.45431 4.40846 8.11764 4.84606 7.68004C5.28365 7.24244 5.62032 6.71449 5.83249 6.13314H19.1658C19.3736 6.71158 19.7049 7.23783 20.1367 7.67531C20.5684 8.11279 21.0902 8.45102 21.6658 8.66648V15.0731C21.0969 15.2814 20.5793 15.6095 20.148 16.035C19.7167 16.4605 19.3817 16.9737 19.1658 17.5398H5.83249C5.61625 16.9646 5.27775 16.4432 4.84037 16.0116C4.40299 15.58 3.87716 15.2484 3.29916 15.0398V8.66648Z" fill="white"/>
</g>
<defs>
<clipPath id="clip0_600_288217">
<rect width="21.3067" height="14.34" fill="white" transform="translate(1.83301 4.66602)"/>
</clipPath>
</defs>
</svg>
