<svg width="24" height="24" viewBox="0 0 24 24" fill="none" xmlns="http://www.w3.org/2000/svg"><path d="M7.579 1.83l-.361-.166c.36 0 1.082 0 1.443.167 1.083.333 2.166.833 3.429 2l.36.333h.362c1.804-.333 3.609 0 5.233.667.36.167 1.082.5 1.082.667 0 0 0 .166.18.5.181.666 0 1.166-.18 1.666-.18.167-.18.334 0 .5 0 .167.18.334.361.334.361 0 .722-.5.902-1.334v-.333l.361-.167c.903.834 1.444 2 1.624 2.834v.166l-.18-.166c-.18-.334-.541-.5-.722-.834-.541-.333-1.082-.333-2.706-.5-1.444 0-2.166-.166-2.888-.333-1.443-.5-1.985-1-3.609-2.833-.721-.834-1.082-1.334-1.624-1.667-.902-1-1.985-1.334-3.067-1.5z" fill="#8149BF"></path><path d="M19.669 3.668c0-.5.18-1 .36-1.333 0-.167 0-.167.181-.167v.167c-.36.333-.36.833-.36 1.333.18.667.18.833.901 1.5.361.333.722.833.903 1l.36.333-.36-.166c-.361-.334-1.083-.834-1.263-1h-.18s0 .166-.181.5c0 .667-.18 1.167-.361 1.5-.18.167-.18.167 0 0 .18-.333.18-.333.18-1 0-1.334-.18-1.667-1.082-2.167-.361-.167-.542-.333-.903-.5-.18 0-.36-.167-.36-.167s.902.167 1.443.334c.541.166.722.166.722.166-.18.167-.18 0 0-.333zM8.12 5.835C7.398 5 7.037 3.668 7.218 2.668v-.333h.18c.361 0 .722.166 1.083.333.541.5.722.833 1.083 2.167 0 .333.18.833.18.833 0 .167.361.667.722 1 .18.167 0 .334-.361.334-.541 0-1.444-.5-1.985-1.167zm10.647 6.5c-3.248-1.167-4.331-2.167-4.331-4v-.5s.18.167.36.167c.542.5 1.264.833 3.249 1 1.263.166 1.804.333 2.526.5 1.985.666 3.248 1.833 3.429 3.5 0 .5 0 1.333-.18 1.833 0 .334-.362 1-.362 1.167v-.167c0-.666-.36-1.167-.902-1.667-.722-.666-1.624-1-3.79-1.833zm-2.346.5c0-.167 0-.5-.18-.667v-.166l.18.166c.18.167.36.5.541.834v.833c0 .5 0 .5-.18.833 0 .334-.18.667-.542 1-.541.5-1.263.834-2.345 1H12.63c-1.263 0-1.985.167-2.706.334h-.18s.54-.333.901-.5c.542-.333 1.083-.333 2.346-.667.542.167 1.263 0 1.444 0 1.443-.5 2.346-1.667 1.985-3z" fill="#8149BF"></path><path d="M18.044 15.167c-.36-.834-.54-1.667-.36-2.5 0-.167 0-.167.18-.167 0 0 .18 0 .18.167.181.166.542.333 1.625.833 1.263.667 1.985 1.167 2.526 1.834.36.5.722 1.166.902 1.833V19c-.36 1.334-1.083 2.334-2.346 2.834-.18.166-.36.166-.36.166s0-.166.18-.333c.36-.833.36-1.5.18-2.333-.18-.5-.541-1.167-1.263-2.167-1.083-1.167-1.263-1.5-1.444-2zm-12.09 4.667c1.264-1 2.707-1.5 3.97-1.834h2.166c.902.167 1.624.667 1.985 1.167.36.5.541 1 .721 2 0 .333.18.833.18.833.181.5.362 1 .723 1.167.541.333 1.443.333 2.165 0h.361s-.36.333-.722.5c-.36.167-.722.333-1.082.333-.722 0-1.444-.333-1.986-1.166l-.54-1c-.542-1.167-.903-1.5-1.444-2-.542-.334-1.264-.334-1.805-.167-.722.333-.902 1.167-.36 1.833.18.167.54.334.901.5.542 0 1.083-.333 1.083-.833V21c0-.333-.18-.5-.541-.666-.542-.167-1.083 0-1.083.5 0 .166.18.333.361.333.18 0 .18 0 0 0-.541-.167-.541-.667-.18-1 .54-.5 1.443-.167 1.804.333.18.167.18.667 0 1-.36.667-1.083 1-1.804.834-.903 0-1.083-.167-1.805-.667-1.083-1-1.624-1.333-3.248-1.5h-.36c.18-.167.54-.333.54-.333z" fill="#8149BF"></path><path fill-rule="evenodd" clip-rule="evenodd" d="M.541.667c3.79 4.167 6.316 6 6.677 6.333.18.334.18.5-.18.834-.361 0-.722.166-1.083.166-.18 0-.361-.166-.361-.166s-.18 0-.902-1.334c-.722-1-1.444-2-1.985-2.833l1.985 3.167c.36.666 0 1 0 1 0 .166 0 .333-.361.5-.542.5-.722 1-.902 2.167 0 1.166-.542 2-1.805 3.333-.722.833-.902 1-1.083 1.333-.18.5-.18.667-.18 1.167s0 1 .18 1.5.361.834.722 1.334c.361.666.541 1 .541 1.166 0 .167 0 .167.542 0 1.443-.333 2.526-.833 3.248-1.5.36-.333.541-.666.541-1.166 0-.334 0-.5-.18-.667-.18-.334-.542-.667-1.083-1-.902-.5-1.263-.834-1.263-1.5 0-.5 0-.834.541-1.834.542-1 .542-1.333.722-2.333 0-.667.18-.834.361-1 0-.167.18-.334.722-.334.902-.166 1.443-.333 1.804-.666.361-.334.542-.667.542-1.167v-.333l-.18-.167C7.397 5.834 0 0 0 0s.18.333.541.667zM2.346 17c.18-.334 0-.667-.18-.834-.362-.166-.722 0-.722.167 0 0 0 .167.18.167s.18.166 0 .333-.18.334 0 .334c.18.166.541.166.722-.167zm6.496-7.834A2.1 2.1 0 007.94 10v.833c.18.167.36.333.722.333.902 0 1.624-.333 1.804-.833 0-.333-.18-.834-.722-1-.18-.167-.541-.167-.902-.167zm1.083.667c.18-.167 0-.334-.18-.5-.362-.167-1.083 0-1.083.333 0 .334.36.5.721.5.18 0 .361-.166.542-.333z" fill="#8149BF"></path></svg>