<svg width="25" height="24" viewBox="0 0 25 24" fill="none" xmlns="http://www.w3.org/2000/svg">
<path d="M10.8526 17.6064C12.8984 17.6064 14.5569 15.9618 14.5569 13.9331C14.5569 11.9044 12.8984 10.2598 10.8526 10.2598C8.80687 10.2598 7.14844 11.9044 7.14844 13.9331C7.14844 15.9618 8.80687 17.6064 10.8526 17.6064Z" fill="#F0C846" fill-opacity="1"/>
<path d="M23.8617 8.00065L22.5172 7.08065L23.3306 5.64732C23.3903 5.54372 23.4171 5.42468 23.4075 5.30576C23.3979 5.18683 23.3523 5.07353 23.2768 4.98065C23.2188 4.90896 23.145 4.8513 23.0611 4.81203C22.9773 4.77277 22.8855 4.75292 22.7928 4.75399C22.7304 4.74523 22.667 4.74523 22.6046 4.75399L21.0315 5.22732L20.4331 3.72065C20.3884 3.60655 20.3098 3.50854 20.2078 3.43953C20.1058 3.37052 19.9852 3.33372 19.8617 3.33399V3.33399C19.7392 3.33415 19.6196 3.3712 19.5187 3.44025C19.4179 3.50929 19.3406 3.60707 19.297 3.72065L18.6852 5.24065L17.1188 4.76732C17.0542 4.75793 16.9885 4.75793 16.9239 4.76732C16.8322 4.76677 16.7416 4.78689 16.6589 4.82616C16.5762 4.86542 16.5036 4.92281 16.4466 4.99399C16.3711 5.08686 16.3255 5.20016 16.3159 5.31909C16.3063 5.43802 16.3331 5.55705 16.3928 5.66065L17.2197 7.09399L15.8482 8.00065C15.7421 8.0724 15.6611 8.17514 15.6166 8.29461C15.572 8.41408 15.566 8.54434 15.5995 8.66732C15.6247 8.78719 15.6867 8.89639 15.777 8.97994C15.8673 9.0635 15.9814 9.1173 16.1037 9.13399L17.7441 9.33399L17.623 10.974C17.6125 11.0957 17.6396 11.2178 17.7009 11.3238C17.7622 11.4299 17.8546 11.5148 17.9659 11.5673C18.0499 11.6069 18.1418 11.6274 18.2348 11.6273C18.3871 11.6277 18.5337 11.5704 18.6449 11.4673L19.855 10.354L21.0651 11.4673C21.1555 11.5465 21.267 11.5981 21.3863 11.6158C21.5056 11.6336 21.6275 11.6167 21.7373 11.5673C21.848 11.5141 21.9399 11.429 22.0011 11.3231C22.0623 11.2173 22.0898 11.0956 22.0802 10.974L21.9861 9.33399L23.6264 9.08732C23.7429 9.06375 23.85 9.00702 23.9345 8.92407C24.019 8.84112 24.0773 8.73555 24.1023 8.62026C24.1272 8.50497 24.1178 8.38497 24.075 8.27493C24.0323 8.16489 23.9582 8.06957 23.8617 8.00065Z" fill="white" fill-opacity="1"/>
<path d="M2.80529 21.1001H18.9398C19.653 21.1001 20.3369 20.8192 20.8412 20.3191C21.3455 19.819 21.6289 19.1407 21.6289 18.4334V14.7134C21.6113 14.5302 21.5254 14.36 21.388 14.2361C21.2507 14.1122 21.0717 14.0436 20.886 14.0436C20.7003 14.0436 20.5213 14.1122 20.384 14.2361C20.2466 14.36 20.1607 14.5302 20.1431 14.7134V18.4534C20.1441 18.6098 20.1135 18.7647 20.0531 18.9092C19.9928 19.0536 19.904 19.1847 19.7919 19.2946C19.6798 19.4045 19.5467 19.4911 19.4003 19.5493C19.254 19.6075 19.0974 19.6361 18.9398 19.6334H2.80529C2.64734 19.6361 2.49044 19.6075 2.34373 19.5494C2.19703 19.4913 2.06346 19.4048 1.95082 19.295C1.83819 19.1851 1.74873 19.0542 1.68767 18.9097C1.62662 18.7652 1.59518 18.6101 1.59521 18.4534V9.4201C1.59518 9.26345 1.62662 9.10835 1.68767 8.96387C1.74873 8.81939 1.83819 8.68841 1.95082 8.57857C2.06346 8.46873 2.19703 8.38223 2.34373 8.32412C2.49044 8.26601 2.64734 8.23745 2.80529 8.2401H13.5616C13.7577 8.2401 13.9458 8.16284 14.0845 8.02532C14.2232 7.88779 14.3011 7.70126 14.3011 7.50677C14.3011 7.31228 14.2232 7.12575 14.0845 6.98823C13.9458 6.8507 13.7577 6.77344 13.5616 6.77344H2.80529C2.0921 6.77344 1.40813 7.05439 0.903825 7.55449C0.399524 8.05458 0.116211 8.73286 0.116211 9.4401L0.116211 18.4534C0.121534 19.1572 0.407195 19.8304 0.91092 20.3261C1.41464 20.8219 2.09558 21.1001 2.80529 21.1001V21.1001Z" fill="white" fill-opacity="1"/>
</svg>
