<svg width="24" height="27" viewBox="0 0 24 27" fill="none" xmlns="http://www.w3.org/2000/svg"><path d="M7.6 2l-.4-.2c.4 0 1.1 0 1.5.2 1 .4 2.1.9 3.4 2.2l.4.3h.3c1.8-.3 3.6 0 5.2.8.4.1 1.1.5 1.1.7l.2.5c.2.8 0 1.3-.2 1.8-.2.2-.2.4 0 .6 0 .2.2.3.4.3.3 0 .7-.5.9-1.4v-.4l.4-.1c.9.9 1.4 2.1 1.6 3v.2l-.2-.2-.7-.9c-.6-.3-1.1-.3-2.7-.5-1.5 0-2.2-.2-3-.4-1.4-.5-2-1-3.5-3-.8-1-1.1-1.5-1.7-1.9-.9-1-2-1.4-3-1.6z" fill="#FC56D7"></path><path d="M19.7 4c0-.6.1-1.1.3-1.5l.2-.1v.1c-.4.4-.4 1-.4 1.5.2.7.2.9 1 1.6l.9 1.1.3.4-.3-.2c-.4-.4-1.1-1-1.3-1h-.2l-.2.4c0 .8-.2 1.3-.3 1.7-.2.2-.2.2 0 0l.1-1.1c0-1.5-.1-1.8-1-2.4l-1-.5-.3-.2 1.4.4.8.2c-.2.1-.2 0 0-.4zM8 6.3c-.7-.9-1-2.3-.9-3.4v-.4h.2c.4 0 .7.2 1 .4.6.5.8 1 1.2 2.4l.1.9c0 .1.4.7.8 1 .1.2 0 .4-.4.4-.5 0-1.4-.5-2-1.3zm10.7 7.1c-3.3-1.2-4.4-2.3-4.4-4.3v-.6l.4.2c.5.6 1.3 1 3.2 1.1l2.6.5c2 .8 3.2 2 3.4 3.8 0 .6 0 1.5-.2 2l-.3 1.3v-.2c0-.7-.4-1.2-1-1.8-.7-.7-1.6-1-3.7-2zm-2.4.6c0-.2 0-.6-.2-.8v-.1l.2.1.6 1v.9c0 .5 0 .5-.2.9 0 .3-.2.7-.6 1a4 4 0 01-2.3 1.1h-1.3c-1.2 0-2 .2-2.7.4h-.2l1-.5c.5-.4 1-.4 2.3-.8.5.2 1.3 0 1.4 0 1.5-.5 2.4-1.8 2-3.2z" fill="#FC56D7"></path><path d="M18 16.5c-.3-.9-.5-1.8-.3-2.7 0-.2 0-.2.2-.2l.1.2 1.7.9c1.2.7 2 1.3 2.5 2 .4.5.7 1.3.9 2v2c-.4 1.4-1 2.5-2.3 3l-.4.2.2-.3c.3-1 .3-1.7.2-2.6l-1.3-2.3c-1-1.3-1.3-1.7-1.5-2.2zm-12 5c1.2-1 2.7-1.5 4-2h2c1 .3 1.7.8 2 1.4.4.5.6 1 .8 2.1l.2 1c.2.5.3 1 .7 1.2.5.4 1.4.4 2.2 0h.3s-.3.4-.7.6l-1 .3c-.8 0-1.5-.3-2-1.3l-.6-1a5.6 5.6 0 00-1.4-2.2c-.6-.4-1.3-.4-1.9-.2-.7.4-.9 1.3-.3 2 .2.2.5.4.9.5.5 0 1-.3 1-.9 0-.4-.1-.6-.5-.8-.5-.2-1 0-1 .6 0 .2.1.3.3.3.2 0 .2 0 0 0-.5-.1-.5-.7-.2-1 .6-.6 1.5-.2 1.8.3.2.2.2.7 0 1.1-.3.7-1 1-1.8.9-.9 0-1-.2-1.8-.7-1-1.1-1.6-1.5-3.2-1.7h-.4l.6-.3z" fill="#FC56D7"></path><path fill-rule="evenodd" clip-rule="evenodd" d="M.5.7c3.8 4.6 6.4 6.6 6.7 7 .2.3.2.5-.2.8l-1 .2-.4-.2s-.2 0-1-1.4L2.8 4l2 3.4c.4.8 0 1.1 0 1.1 0 .2 0 .4-.4.6-.5.5-.7 1-.9 2.3 0 1.3-.5 2.2-1.8 3.7-.7.9-.9 1-1 1.4-.2.5-.2.7-.2 1.3l.1 1.6c.2.6.4 1 .8 1.5l.5 1.2c0 .2 0 .2.5 0 1.5-.3 2.6-.9 3.3-1.6.4-.4.5-.7.5-1.3l-.1-.7a3 3 0 00-1.1-1c-1-.6-1.3-1-1.3-1.7 0-.6 0-1 .6-2 .5-1.1.5-1.5.7-2.6 0-.7.2-.9.3-1 0-.2.2-.4.8-.4.9-.2 1.4-.4 1.8-.7.3-.4.5-.8.5-1.3v-.4l-.2-.1C7.4 6.3 0 0 0 0l.5.7zm1.8 17.8c.2-.4 0-.7-.1-1-.4 0-.8 0-.8.3 0 0 0 .2.2.2s.2.1 0 .3c-.2.2-.2.4 0 .4.2.2.6.2.7-.2zM8.8 10c-.3.2-.7.5-.9.9v.9c.2.2.4.4.8.4.9 0 1.6-.4 1.8-1 0-.3-.2-.9-.8-1-.1-.2-.5-.2-.9-.2zm1.1.7c.2-.2 0-.4-.2-.5-.3-.2-1 0-1 .3 0 .4.3.6.7.6.2 0 .3-.2.5-.4z" fill="#FC56D7"></path></svg>