<svg width="24" height="24" viewBox="0 0 24 24" fill="none" xmlns="http://www.w3.org/2000/svg"><path d="M12.028 24l5.039-2.531-4.335-2.157-.704.329-.758-.328-4.334 2.156L12.028 24zm5.039-21.469L12.028 0 6.936 2.531l4.334 2.156.758-.375.704.375 4.335-2.156zm2.166 1.079l-4.335 2.156 3.251 1.64L0 16.453v1.688l4.767 2.39 4.335-2.156-3.251-1.594L24 7.688V6l-4.767-2.39z" fill="#8149BF"></path><path d="M24 10.36V18l-1.517.75-3.25 1.64-4.335-2.156-3.304-1.687 3.25-1.594 3.305 1.64 1.517-.75v-3.327l.596-.282L24 10.36zM0 13.594V6l1.517-.797 3.25-1.594 4.335 2.157 3.358 1.64-3.25 1.64-3.359-1.64-1.517.75v3.281l-.596.329L0 13.594z" fill="#8149BF"></path></svg>