<svg width="16" height="21" viewBox="0 0 16 21" fill="none" xmlns="http://www.w3.org/2000/svg">
<path fill-rule="evenodd" clip-rule="evenodd" d="M10.5845 0.30645C10.9495 -0.0585303 11.5412 -0.0585303 11.9062 0.30645L15.6446 4.04482C16.0096 4.4098 16.0096 5.00155 15.6446 5.36653L11.9062 9.10489C11.5412 9.46987 10.9495 9.46987 10.5845 9.10489C10.2195 8.73991 10.2195 8.14816 10.5845 7.78318L12.7274 5.64026H4.70323C3.95962 5.64026 3.24647 5.93566 2.72066 6.46147C2.19485 6.98728 1.89946 7.70043 1.89946 8.44404V11.2475L0.964865 11.2478L0.0302734 11.2478V8.44404C0.0302734 7.20469 0.522601 6.01611 1.39895 5.13976C2.2753 4.26341 3.46389 3.77108 4.70323 3.77108H12.7274L10.5845 1.62816C10.2195 1.26318 10.2195 0.671431 10.5845 0.30645ZM0.964865 11.2478L0.0302734 11.2478C0.0302734 11.764 0.448704 12.1824 0.964865 12.1824C1.48103 12.1824 1.89946 11.7636 1.89946 11.2475L0.964865 11.2478Z" fill="#F0C846"/>
<path fill-rule="evenodd" clip-rule="evenodd" d="M5.36373 20.32C4.99875 20.685 4.407 20.685 4.04202 20.32L0.303651 16.5816C-0.061329 16.2167 -0.061329 15.6249 0.303651 15.2599L4.04202 11.5216C4.407 11.1566 4.99875 11.1566 5.36373 11.5216C5.72871 11.8866 5.72871 12.4783 5.36373 12.8433L3.22081 14.9862H11.245C11.9886 14.9862 12.7018 14.6908 13.2276 14.165C13.7534 13.6392 14.0488 12.926 14.0488 12.1824V9.37898L14.9834 9.37865L15.918 9.37867V12.1824C15.918 13.4218 15.4256 14.6104 14.5493 15.4867C13.6729 16.3631 12.4844 16.8554 11.245 16.8554H3.22081L5.36373 18.9983C5.72871 19.3633 5.72871 19.955 5.36373 20.32ZM14.9834 9.37865L15.918 9.37867C15.918 8.86251 15.4995 8.44406 14.9834 8.44406C14.4672 8.44406 14.0488 8.86282 14.0488 9.37898L14.9834 9.37865Z" fill="#F0C846"/>
</svg>
