<svg width="23" height="23" viewBox="0 0 23 23" fill="none" xmlns="http://www.w3.org/2000/svg">
<path fill-rule="evenodd" clip-rule="evenodd" d="M6.56649 5.70561C6.07075 5.70561 5.59532 5.90254 5.24478 6.25308C4.89424 6.60362 4.69731 7.07905 4.69731 7.57479V13.1823C4.69731 13.6781 4.89424 14.1535 5.24478 14.5041C5.59532 14.8546 6.07075 15.0515 6.56649 15.0515H8.43567C8.68354 15.0515 8.92126 15.15 9.09653 15.3253L11.2394 17.4682L13.3824 15.3253C13.5576 15.15 13.7954 15.0515 14.0432 15.0515H15.9124C16.4081 15.0515 16.8836 14.8546 17.2341 14.5041C17.5847 14.1535 17.7816 13.6781 17.7816 13.1823V10.3786C17.7816 9.86241 18.2 9.44397 18.7162 9.44397C19.2323 9.44397 19.6508 9.86241 19.6508 10.3786V13.1823C19.6508 14.1738 19.2569 15.1247 18.5558 15.8258C17.8547 16.5268 16.9039 16.9207 15.9124 16.9207H14.4303L11.9003 19.4507C11.5353 19.8157 10.9436 19.8157 10.5786 19.4507L8.04855 16.9207H6.56649C5.57501 16.9207 4.62415 16.5268 3.92307 15.8258C3.22199 15.1247 2.82812 14.1738 2.82812 13.1823V7.57479C2.82812 6.58332 3.22199 5.63245 3.92307 4.93137C4.62415 4.23029 5.57501 3.83643 6.56649 3.83643H13.1086C13.6248 3.83643 14.0432 4.25486 14.0432 4.77102C14.0432 5.28718 13.6248 5.70561 13.1086 5.70561H6.56649Z" fill="#F0C846"/>
<path fill-rule="evenodd" clip-rule="evenodd" d="M15.913 5.70561C16.4087 5.70561 16.8842 5.90254 17.2347 6.25308C17.5853 6.60362 17.7822 7.07905 17.7822 7.57479V13.1823C17.7822 13.6781 17.5853 14.1535 17.2347 14.5041C16.8842 14.8546 16.4087 15.0515 15.913 15.0515H14.0438C13.7959 15.0515 13.5582 15.15 13.383 15.3253L11.24 17.4682L9.09713 15.3253C8.92186 15.15 8.68414 15.0515 8.43627 15.0515H6.56709C6.07135 15.0515 5.59591 14.8546 5.24538 14.5041C4.89484 14.1535 4.6979 13.6781 4.6979 13.1823V10.3786C4.6979 9.86241 4.27947 9.44397 3.76331 9.44397C3.24715 9.44397 2.82872 9.86241 2.82872 10.3786V13.1823C2.82872 14.1738 3.22258 15.1247 3.92366 15.8258C4.62474 16.5268 5.57561 16.9207 6.56709 16.9207H8.04915L10.5792 19.4507C10.9442 19.8157 11.5359 19.8157 11.9009 19.4507L14.4309 16.9207H15.913C16.9045 16.9207 17.8553 16.5268 18.5564 15.8258C19.2575 15.1247 19.6514 14.1738 19.6514 13.1823V7.57479C19.6514 6.58332 19.2575 5.63245 18.5564 4.93137C17.8553 4.23029 16.9045 3.83643 15.913 3.83643H9.37086C8.8547 3.83643 8.43627 4.25486 8.43627 4.77102C8.43627 5.28718 8.8547 5.70561 9.37086 5.70561H15.913Z" fill="#F0C846"/>
</svg>
