<svg width="24" height="24" viewBox="0 0 24 24" fill="none" xmlns="http://www.w3.org/2000/svg"><path d="M24 11.901c.03 6.611-5.318 11.992-11.94 12.022C5.428 23.953.03 18.613 0 12.02-.03 5.421 5.318.031 11.94.001 18.572-.03 23.97 5.3 24 11.9z" fill="#542D6C"></path><path d="M18.08 7.69c-.873-.25-1.776-.61-2.689-.97V6.7s-.04-.07-.06-.11c-.01-.03-.03-.05-.04-.08-.562-1.16-2.027-1.31-3.251-.93h.03s-.02 0-.04.01c-1.074-.25-2.127-.34-3.14-.09-4.506 1.24-5.178 3.45-5.338 6.1-.231 2.751-.382 4.811-1.425 7.171.07.11.15.22.23.33.03.04.06.08.091.13 2.278 3.17 7.054 5.511 11.468 4.551l.211-.03c-.512-3.51 2.568-6.94 4.294-8.691.361-.37.893-.87 1.425-1.4 2.368-2.12 2.92-4.69-1.766-5.97z" fill="#8149BF"></path><path d="M19.103 11.32c0 .28-.22.51-.502.51a.505.505 0 11-.01-1.01c.281 0 .512.22.512.5z" fill="#00000F"></path><path d="M12.622 9.021c0 1.27-1.034 2.31-2.318 2.31a2.309 2.309 0 01-2.318-2.31c0-1.28 1.034-2.31 2.318-2.31a2.309 2.309 0 012.318 2.31z" fill="#fff"></path><path d="M11.93 9.04c0 .9-.732 1.63-1.635 1.63s-1.636-.73-1.636-1.63c0-.9.733-1.63 1.636-1.63.903 0 1.635.73 1.635 1.63zm8.98 3.392c-.582.53-1.275.93-1.987 1.27-.712.34-1.455.61-2.227.81-.773.2-1.576.35-2.378.27-.813-.07-1.636-.35-2.168-.96l.03-.03c.663.42 1.425.57 2.168.6.762.02 1.535-.04 2.287-.19.763-.16 1.505-.38 2.218-.68.712-.29 1.424-.64 2.037-1.12l.02.03z" fill="#00000F"></path></svg>