<svg width="102" height="102" viewBox="0 0 102 102" fill="none" xmlns="http://www.w3.org/2000/svg"><path d="M44 61v.1l1 .6h.3a27.2 27.2 0 002.2 1l.7.4.9.3h.1a34.8 34.8 0 001.8.6l.8.3a46.4 46.4 0 0012.2 2l1.3.1A49.8 49.8 0 0093 59.5l.6-.4.6-.4.6-.5.5-.4.1-.1.2-.2a11 11 0 00.7-.6l.3-.3.1-.2.3-.2.2-.2.4-.5.3-.4.4-.6h.1l.3-.5.3-.5.9-1.5v-.1l.1-.2.1-.3v-.2h.1V51l.1-.2.1-.2.2-.6v-.4l.2-.3v-.7l.1-.3V47" stroke="#fff" stroke-width="1.2" stroke-miterlimit="10"></path><path d="M44 61v.1l1 .6h.3a27.2 27.2 0 002.2 1l.7.4.9.3h.1a34.8 34.8 0 001.8.6l.8.3a46.4 46.4 0 0013.5 2.1A49.8 49.8 0 0093 59.5l.6-.4.6-.4.6-.5.5-.4.1-.1.2-.2a7.3 7.3 0 00.7-.6l.3-.3.1-.2.5-.4.4-.5a16.1 16.1 0 00.7-1h.1l.3-.5.3-.5.9-1.5v-.1l.1-.2.1-.3v-.2h.1V51l.1-.2.1-.2.2-.6v-.4l.2-.3v-.7l.1-.3v-.6l.1-.7v13.2c0 5-3.3 10-9.9 13.8a53 53 0 01-47.2.3" stroke="#fff" stroke-width="1.2" stroke-miterlimit="10"></path><path d="M42.6 47a2.8 2.8 0 00.1.1l.2.2.4.2a52.8 52.8 0 0050-1.4l.1-.1.2-.1.1-.1.2-.1.3-.3h.2l.1-.2.1-.1h.1l.2-.2.1-.1.3-.2.5-.5.6-.6.3-.3.3-.3.2-.2 1.2-1.4v-.1l.1-.1v-.2l.5-.6v-.1h.1l.1-.2a13.2 13.2 0 00.9-1.7V38l.2-.4.1-.4.2-.4v-.4m.1 0l.1-.6v-.4l.1-.6v-1.1" stroke="#fff" stroke-width="1.2" stroke-miterlimit="10"></path><path d="M42.6 47l.2.2h.2c0 .2.2.2.3.3a52.8 52.8 0 0050-1.4l.1-.1.2-.1.1-.1.2-.1.2-.2h.1l.6-.5.5-.4.5-.5.6-.6a16.9 16.9 0 00.7-.6l.1-.2 1.2-1.4v-.1l.1-.2h.1l.4-.7.1-.1.1-.2a13.2 13.2 0 00.9-1.7V38l.2-.4.2-.4v-.4l.2-.4" stroke="#fff" stroke-width="1.2" stroke-miterlimit="10"></path><path d="M100.7 36.4l.1-.6v-.4l.1-.6v-.4l.1-.8V47a9.4 9.4 0 010 1v.3l-.1.3v.4l-.1.3-.1.3a3.2 3.2 0 01-.1.4l-.2.6v.2l-.1.2v.1l-.1.1-.1.2-.1.3v.2h-.1c-.3.6-.5 1.1-.9 1.6 0 .2-.2.4-.3.5 0 .2-.2.3-.3.4v.1a7.6 7.6 0 01-.8 1 4.4 4.4 0 01-.5.5l-.1.2-.2.2-.2.2-.3.3-.2.1a11 11 0 01-1.3 1.2l-.6.5a8.5 8.5 0 01-1.2.8c-.6.4-1.2.9-1.9 1.2-7 4.1-16.5 6-25.8 5.7H64a58.5 58.5 0 01-12.2-2.1c-.3 0-.6-.2-.8-.3-.3 0-.5 0-.7-.2a34.8 34.8 0 01-1.2-.4l-1-.3-.6-.3a27.3 27.3 0 01-2.2-1l-.2-.1-1-.6h-.2M101 20.5c0 2.2-.7 4.5-2 6.6-1.6 2.6-4.3 5-7.9 7.2a52.8 52.8 0 01-47.8 0 22.2 22.2 0 01-7.8-7.2c-1.4-2.1-2-4.4-2-6.6 0-5 3.3-10 9.8-13.8a52.8 52.8 0 0147.8 0c6.6 3.8 9.9 8.8 9.9 13.8z" stroke="#fff" stroke-width="1.2" stroke-miterlimit="10"></path><path d="M33.4 32.4v-12c0 2.3.7 4.6 2 6.7 1.7 2.6 4.3 5 8 7.2a52.8 52.8 0 0047.7 0c3.6-2.1 6.3-4.6 7.9-7.2 1.3-2.1 2-4.4 2-6.6v14.3l-.1.5v.5l-.2.5-.1.5-.1.4-.2.4-.1.4-.1.3-.9 1.7v.2H99a13.2 13.2 0 01-1.8 2.5 2.6 2.6 0 01-.1.2l-.4.3-.3.3-.6.6a9 9 0 01-.5.5l-.3.2-.1.1-.1.1h-.1l-.2.2-.1.1-.2.1-.1.1-.4.3-.3.2a29 29 0 01-2.3 1.5 52.8 52.8 0 01-47.8 0l-.3-.2-.2-.1-.2-.1m42.2-36.7l-3.9 2.2M67.2 6.2v3.1m-17.5 1.1l3.8 2.2m-11.1 7.9H48m1.7 10.1l3.8-2.2m13.7 6.4v-3.1m17.6-1.1l-3.9-2.2M92 20.5h-5.4M35.3 53.6a18 18 0 00-2-4.3l-7.1-11-4.8-7.4c-1.7-2.7-4.2-4.2-6-3.5l-2.5 1-9.3 3.8h-.2l-.4.3c-1.3.9-2 2.6-2 4.7v40.4c0 3 2 6.5 4.6 8l25.7 14.8c1.3.7 2.4.8 3.3.3.8-.5 1.3-1.6 1.3-3V57.4c0-1.2-.2-2.5-.6-3.8zm-16.9 6.8a14 14 0 01-6.3-11c0-1.1.2-2 .6-2.7 1-2 3.2-2.4 5.7-1 3.5 2 6.4 7 6.4 11 0 4.1-2.9 5.8-6.4 3.7z" stroke="#fff" stroke-width="1.2" stroke-miterlimit="10"></path><path d="M24.8 56.8c0 4-2.9 5.7-6.4 3.6a14 14 0 01-6.3-11c0-1.1.2-2 .6-2.7 1-2 3.2-2.4 5.7-1 3.5 2 6.4 7 6.4 11zm-.7 20.5l-11.4-6.6m9.2 13.9l-7-4" stroke="#fff" stroke-width="1.2" stroke-miterlimit="10"></path><path d="M44 52.7V93c0 1.5-.6 2.5-1.4 3l-8 4.6c.8-.5 1.2-1.5 1.2-3V57.5c0-1.2-.2-2.5-.6-3.8a18 18 0 00-2-4.3l-7-11-4.8-7.4c-1.7-2.7-4.2-4.2-6-3.5l-2.5 1-9.3 3.8h-.2L11 28l.4-.2.3-.2 11.8-4.7c1.7-.7 4.2.7 6 3.4l11.8 18.5c1.7 2.5 2.6 5.5 2.6 8z" stroke="#fff" stroke-width="1.2" stroke-miterlimit="10"></path></svg>