<svg width="102" height="102" viewBox="0 0 102 102" fill="none" xmlns="http://www.w3.org/2000/svg"><path d="M101 73.8a8 8 0 01-.1 1.5v.1l-.1.4-.1.5-.1.2v.2l-.2.3c0 .2 0 .4-.2.5l-.1.4v.1l-.2.3-.1.2a9 9 0 01-1.2 1.8l-.3.4a3 3 0 01-.3.4 6.4 6.4 0 01-.6.7l-.6.5-.2.2-.8.6-.4.4-.5.4c-.2 0-.3.2-.5.3l-.5.4-.6.3-.5.3a44 44 0 01-39.8 0l-.4-.3-.6-.3-.6-.4-.5-.3-.1-.1a8 8 0 01-.8-.7l-.7-.6H49v-.2a15.3 15.3 0 01-1.6-1.6l-.2-.3-.4-.5v-.1a7 7 0 01-.7-1l-.2-.4a9.2 9.2 0 01-.4-.8v-.2l-.2-.3v-.3h-.1v-.4L45 76a6.2 6.2 0 010-1v-1.1m1.5-5.6" stroke="#fff" stroke-width="1.2" stroke-miterlimit="10"></path><path d="M101 73.8v11c0 4.1-2.7 8.3-8.2 11.4a44 44 0 01-39.8 0c-5.4-3.1-8.2-7.3-8.2-11.4v-11c0 1.8.6 3.7 1.7 5.5 1.3 2.1 3.5 4.2 6.5 6a44 44 0 0039.8 0c3-1.8 5.2-3.9 6.5-6 1.1-1.8 1.7-3.7 1.7-5.5zM44.8 63.5v.3l.1.1m.1.4v.4l.1.4m.1.2v.3l.1.2m.4 1l.1.2.1.3m.1.1a5.4 5.4 0 00.5.9l.4.5.2.4.2.2m.2.3l.4.4m.3.3c0 .2.2.3.3.4m1.6 1.4H50m1.2.8l.7.6m41.9 0l-1 .6m3.6-2.5a4 4 0 01-.5.3m1.4-1.2l.3-.4m.4-.4l.3-.3m.3-.4l.1-.1.1-.2m.2-.4c.2 0 .2-.2.3-.3m.1-.2V68m.1 0l.3-.6m.1-.2l.3-.6.3-.7m0-.2l.1-.3m.2-1v.5m.2-1.1v-.3" stroke="#fff" stroke-width="1.2" stroke-miterlimit="10"></path><path d="M101 62.8v12.1l-.1.4-.1.5-.1.5-.1.2v.2l-.2.3c0 .2 0 .4-.2.5l-.1.4v.1l-.2.3-.1.2v.1l-.3.3v.2a8.2 8.2 0 01-.6.8l-.3.4-.3.4a4 4 0 01-.3.4 6.4 6.4 0 01-.7.7 10 10 0 01-.8.8 9 9 0 01-.7.5l-.4.4-.5.4c-.2 0-.3.2-.5.3l-.5.4-.6.3-.5.3a44 44 0 01-40.1-.2l-.7-.4-.6-.4-.5-.3-.1-.1a13.3 13.3 0 01-1.2-1l-.3-.2-.3-.3a10 10 0 01-.5-.5l-.3-.3a6.4 6.4 0 01-.7-.8l-.2-.3a4.3 4.3 0 01-.5-.6 8.7 8.7 0 01-.8-1.4 9.2 9.2 0 01-.4-.8v-.2l-.2-.3-.1-.4v-.3L45 76v-.3a5 5 0 01-.2-.8V62.8a8.4 8.4 0 000 1v.5l.1.4.1.4v.2l.1.2.1.3a9 9 0 00.5 1.2l.1.3a5.4 5.4 0 00.6 1 6.7 6.7 0 00.6.9l.2.2a8.4 8.4 0 00.6.7l.3.3a6 6 0 00.7.7l.4.4.7.6.1.1.7.5.2.2.2.2a22.5 22.5 0 001.8 1.1 44 44 0 0040.8-.6l.7-.5a8.3 8.3 0 001.1-.8l.3-.3c.2 0 .3-.2.5-.3l.2-.2.4-.4.2-.2.4-.5a5.3 5.3 0 00.5-.5l.2-.2.3-.4.1-.2.1-.1.3-.4.2-.3.1-.2.1-.1.3-.6.1-.2.3-.6a7.3 7.3 0 00.3-.9l.1-.3v-.1l.1-.2v-.3a3.6 3.6 0 00.2-.5v-.8l.1-.7zm-56.1-10v-.4m.1.7v.1m0 .6v.1m.5 1.3l-.2-.5m.7 1.5v.2m1.6 2.4l-.4-.5m1.2 1.3l.7.8.9.7" stroke="#fff" stroke-width="1.2" stroke-miterlimit="10"></path><path d="M51.7 62.4l.2.1.4.3a13.6 13.6 0 001.8 1l2.2 1 1.3.5 1.5.6 1.2.3 1.2.4m1.5.4h.6a59.7 59.7 0 009.3 1h1.4a34 34 0 003.3-.3h.7l.5-.1h.5a63 63 0 002.9-.6h.6m.7-.2l1.2-.4a37.8 37.8 0 008.8-3.7l.4-.2.2-.1m.9-.6l.8-.7.9-.7m.3-.4l.4-.4.6-.6m.8-1l-.6.8m1.7-2.5l-.2.3m1.1-2.8l-.2.5m.3-1l-.1.3m.2-1.2v.4m0-1" stroke="#fff" stroke-width="1.2" stroke-miterlimit="10"></path><path d="M101 51.8v12l-.1.4v.1a3.6 3.6 0 01-.2.7v.2l-.1.1v.3h-.1v.2l-.3.7a8.8 8.8 0 01-.7 1.3v.2l-.2.2-.2.3-.3.4v.2l-.2.1-.3.4a5.7 5.7 0 01-.7.7c0 .2-.2.3-.3.4l-.4.3c0 .2-.2.3-.4.4l-.1.2-.5.3-.3.3-.2.1-.6.5-.3.2-.7.5-1 .6A44 44 0 0151.2 73l-.2-.2-.2-.2-.7-.5H50l-.7-.7a7.2 7.2 0 01-.8-.7l-.3-.4-.3-.3-.4-.4-.2-.3a17.1 17.1 0 01-.8-1.1 10 10 0 01-.5-1l-.3-.5a9 9 0 01-.4-1l-.1-.5a7.5 7.5 0 01-.3-1.5v-12V53a9 9 0 000 .4l.1.3v.2a3.9 3.9 0 00.3.6 5.2 5.2 0 00.2.7l.2.4.2.5v.2h.1v.1l.2.2.2.4v.1a3.5 3.5 0 00.4.6h.1l.1.3.2.1.4.6.1.1.7.7A11.3 11.3 0 0050 61l.8.6.1.1a16.9 16.9 0 002.1 1.4 29.3 29.3 0 008.7 3.4l1.3.3 4 .7 1.2.1a37.6 37.6 0 009.4 0l1.2-.1a38.8 38.8 0 0014.7-4.8l.6-.4.6-.4.2-.1v-.1a14.3 14.3 0 002.5-2.2 6.7 6.7 0 00.7-.6v-.1l.7-.8.2-.4.3-.4v-.1l.2-.2.2-.4.2-.3.1-.3v-.2l.2-.2.1-.4.1-.2.2-.7.2-.5v-.5l.1-.4v-1zm-55 4.5zm4 4.8l-.9-.7.9.7z" stroke="#fff" stroke-width="1.2" stroke-miterlimit="10"></path><path d="M53.6 63.5l.8.4-.3-.1-.6-.4-.5-.2a19.2 19.2 0 01-2-1.4h-.2a13.8 13.8 0 011.5 1l.7.4.6.3zm.8.5l1.6.7-1.6-.8zm1.6.7l1.6.6-1.3-.5-.3-.1zm3.1 1.2a30.3 30.3 0 001.2.3l-1.2-.3zm4.4 1.1h.4-.9a13.8 13.8 0 01.5 0zm3 .5c-.9 0-1.7-.2-2.6-.4l1.1.2 1.5.2zm1 .1l.7.1-1.2-.1h-.5 1zm8.8.2a52.8 52.8 0 00-2.2.1h-2.4a37.6 37.6 0 01.5 0h2.1a34 34 0 002 0zm2.8-.3h.2-.1l-.4.1-1.2.1h.7l.9-.1zm1.7-.2l1.1-.2-2.6.4 1.5-.2zm3.5-.8c.3 0 .5 0 .8-.2l-.4.1-1.2.4-.7.1-.6.1h-.3.4l2-.4zm5.5-1.8zm-.6.3l.6-.3-.3.1-.3.1zm-4.1 1.3zm1.9-.5l.4-.2-.5.2zm.4-.2zm7.5-3.8zm0 0l-.2.2-.5.3-.7.5-.7.4-.5.3-.6.3-.2.1.6-.3.7-.4.7-.5.4-.2 1-.7z" stroke="#fff" stroke-width="1.2" stroke-miterlimit="10"></path><path d="M95 61.8l.8-.7-.9.7zm.8-.7l.9-.7-.9.7zm.9-.7l.7-.8c0 .2-.2.3-.3.4l-.4.4zm1.4-1.5zm.7-.9l.5-.7-.3.4-.2.4zm-49.7-8.6v-.1zm51.2-5.2v.3-.3z" stroke="#fff" stroke-width="1.2" stroke-miterlimit="10"></path><path d="M47.3 47.4v.1l.2.2.3.3.4.5.2.2.5.4.1.2h.1l.1.2.3.2.3.2.3.3.4.3.6.5 2 1.2A44 44 0 0094.6 51l.5-.4.5-.4.4-.3a4.4 4.4 0 00.5-.4l.2-.2.6-.6.2-.2.3-.4.4-.4a7.4 7.4 0 00.7-1l.2-.2a10.3 10.3 0 00.9-1.7l.1-.3v-.1l.1-.2.1-.3.1-.2.1-.4a2.5 2.5 0 00.2-.5v-.5l.1-.5v-1.1 12.5l-.1.4v.2l-.1.5-.3.7v.2a3 3 0 01-.3.6v.2l-.2.3-.2.3a4.5 4.5 0 01-.3.6l-.2.3-.1.1v.1l-.3.4-.6.7-.1.1-.6.7-.4.4-.4.4-.4.4H96v.1l-.3.2-.9.7-.2.2a8.8 8.8 0 01-.6.4l-.6.4a19.2 19.2 0 01-1.2.7H92v.1a10.4 10.4 0 01-.5.2l-.1.1-1.7.8-.3.1-.3.1-1.8.7-.5.2a47.7 47.7 0 01-2 .6h-.1l-1.3.4-.6.1-.7.1H82l-.6.2H81l-.2.1h-.4l-1 .2H79l-.2.1-1.2.1c-1.1.2-2.3.2-3.5.2h-2.4c-1.1 0-2.3 0-3.5-.2l-1.1-.1h-.6l-1-.2-.4-.1h-.2l-.4-.1-.6-.1h-.4l-.5-.2h-.4l-.4-.2h-.5l-.2-.1a21 21 0 01-1.2-.4l-1.2-.3-1.5-.6c-.3 0-.5-.2-.8-.3h-.2l-.3-.2h-.1l-.2-.1-1.6-.8-.3-.1-.3-.2-.3-.2h-.2l-.1-.1H53l-.8-.5-.2-.2h0l-.1-.1h-.1a16.8 16.8 0 01-1-.7v-.1l-.7-.5a15.8 15.8 0 01-2.3-2.2l-.1-.1a11.2 11.2 0 01-.7-.8v-.2l-.1-.1-.2-.2a3.5 3.5 0 01-.3-.5l-.2-.4-.1-.2-.1-.1v-.1l-.3-.6a6.3 6.3 0 01-.4-1v-.3L45 54v-.2l-.1-.3v-.7l-.1-.3v-3.6" stroke="#fff" stroke-width="1.2" stroke-miterlimit="10"></path><path d="M51.2 40l1.8 1.2a44 44 0 0039.8 0c3-1.8 5.2-3.8 6.5-6 1.1-1.8 1.7-3.6 1.7-5.5 0-4.1-2.8-8.3-8.2-11.5a44 44 0 00-39.8 0 17.7 17.7 0 00-6.8 6.6" stroke="#fff" stroke-width="1.2" stroke-miterlimit="10"></path><path d="M51.2 40l1.8 1.2a44 44 0 0039.8 0c3-1.8 5.2-3.8 6.5-6 1.1-1.7 1.7-3.6 1.7-5.5v11a8.2 8.2 0 01-.1 1.6 12.6 12.6 0 01-.3 1v.4l-.2.2v.3l-.2.2v.1l-.1.3a4.2 4.2 0 01-.3.7 10.3 10.3 0 01-1.5 2.2l-.3.3-.4.5-.2.2a10.1 10.1 0 01-.6.6l-.2.2h-.1l-.4.4-.4.3-.4.4h-.1l-.5.4-2 1.2A44 44 0 0151.2 51a9.7 9.7 0 01-1-.8l-.3-.3-.3-.2-.3-.2v-.1l-.2-.1-.1-.2-.5-.4-.2-.2-.3-.4-.4-.4-.1-.2m40-26.2L84.3 23m-11.4-5.2v2.6m-14.6.9l3.2 1.8m-9.2 6.6h4.5m1.5 8.4l3.2-1.8m11.4 5.3V39m14.6-.9l-3.2-1.8m9.2-6.6H89M43 43.8V50l-3.7-2.1-8.3-4.8v48.3L13 81V32.6L1 25.8v-6.2c0-3.7 1.3-6.5 3.5-7.7a5 5 0 011-.5l4.9-1.6 11.6-4 16.4 24.6c2 3.1 3.5 6.6 4.2 9.8l.3 3.6z" stroke="#fff" stroke-width="1.2" stroke-miterlimit="10"></path><path d="M39.3 47.9v38.7L31 91.4V43.1l8.3 4.8zM51.2 39v6.2L43 50v-6.2c0-1.2 0-2.4-.3-3.6-.7-3.3-2.1-6.7-4.2-9.8L22 5.8 30.3 1l16.4 24.6c2.9 4.3 4.5 9.2 4.5 13.4z" stroke="#fff" stroke-width="1.2" stroke-miterlimit="10"></path></svg>