<svg width="84" height="92" viewBox="0 0 84 92" fill="none" xmlns="http://www.w3.org/2000/svg"><path d="M27 83.6c1 .9 2.1 1.7 3.4 2.3l3.8 1.6c1.9 1 3.8 2.5 6.3 2.9 3.7.8 6.9-1.3 9.6-2.9 2.5-1 5.1-2 7.2-3.8" stroke="#fff" stroke-width="1.2" stroke-linecap="round" stroke-linejoin="round"></path><path d="M71.5 19c1 1.7 2.4 4.4 3.3 6.6 1.2 3 2.5 6.6 6.1 15.3 2.6 6.3 3 16.4 1.6 19.4 0 0-4-3.6-7-3.5a18 18 0 013.3 7.3c.3 1.8.5 3.3.5 4.6a9.7 9.7 0 01-2 6.4c-.1.1-.4.2-.6 0-.4-.2-.9-.7-1.1-1.8-.5-1.7-1.5-4.2-1.5-4.2v0c0 .3.4 3.4-.6 7.1-.4 1.8-1.1 3.7-2.3 5.5-3.1 4.7-3.5 4.6-4.9 5.7l-.8.7s0 0 0 0h-.2l-.1.2c-1 .6-1.6.7-1.1-.9.5-2 1.9-5.5 2.3-8.6v-.2s-.3-.4-.7 0l-.2.2-.5 1.3c-.7 2.2-4.5 9.7-9.5 10.9-.3 0-.5-.2-.4-.5l1-3.5c.8-2.6 2-5 3.6-7 1.4-1.9 3.1-4.4 4-7 1.6-5-1.6-5.7-1.6-6.3l.2-2.3v-1.7c-.5-.2-.9-1.1-1.3-1.8a20.3 20.3 0 01-2.6-5.3c-.3-1.1-.5-2.2-.5-3.2v-1.1h0c-.2.2-.6 0-1.3-.1A21.4 21.4 0 0148 45l-.2-.3h-.2l-.1-.2-.1-.2h-.1l-.1-.1-.2-.2h0l-.1-.2a65.9 65.9 0 00.5 5v.7l.1.5.1.5v.5l.1.1a38.1 38.1 0 01.1.6l.1.4v.3l.1.1v.2l.2.4.2.7s0 0 0 0l.2.7v.2l.2.6s0 0 0 0l.2.3.1.5v.2h.1l.5 1.3v.3l.2.2.1.3.3.8v.2l.2.2v.2h0v.2l.1.1s0 0 0 0v.2l.1.1v.2l.1.2s0 0 0 0v.5s0 0 0 0v0c0 .2-.5.2-1 0l-.8-.2-.5-.2-1.2-.6-.9-.4c-1.5-.8-3.1-1.8-4.1-2.8-1.8-1.6-4-3.5-5.7-5.5-.7-.8-1.3-1.7-1.8-2.5 0 0 0 0 0 0 0-.2-.1-.2-.2-.3 0 0 0 0 0 0 .2.5 1.6 4.3 1 4.6h-.2c-.2.2-.4.2-.6.1a5 5 0 01-1.4-.6c-2-1.1-7.8-8.1-8.1-8.8 0 0 1.3 4.2 1.2 8.3 0 1-.2 2-.5 3.2a17.7 17.7 0 01-2.5 5.3c-.5.7-1 1.6-1.3 1.7-.2.1-.1 1 0 1.8l.1 2.3c0 .5-3.1 1.3-1.5 6.3.8 2.7 2.7 5.4 4.2 7.2 1.4 2 2.5 4 3.2 6.4l1.2 4c0 .2-.2.4-.4.4-5-1.2-8.9-8.7-9.5-11a7.4 7.4 0 00-.6-1.2l-.1-.1c-.4-.5-.8-.1-.8-.1v.2c.4 3.1 1.8 6.5 2.4 8.6.4 1.6-.2 1.5-1.1.9l-.2-.1s0 0 0 0l-.1-.1-.9-.7c-1.4-1.2-1.8-1-4.9-5.7a17.5 17.5 0 01-2.3-5.5c-1-3.7-.6-6.8-.5-7.1v0s-1.1 2.5-1.5 4.2c-.3 1-.8 1.6-1.2 1.8H7V75c-1.7-2.3-2.3-5-1.5-11 .8-5.2-1.7-8-2.3-9a5 5 0 01-.7-2.3v-.3l-.8-.9a3 3 0 01-.5-2.9l.5-1.5a93 93 0 011.5-4c1.6-3.8 3-6.5 3-6.5s3.6-11 7-17l.5-1m13.7-14l2-.8c2.7-1.2 14.1-6 28.9.7" stroke="#fff" stroke-width="1.2" stroke-linecap="round" stroke-linejoin="round"></path><path d="M51.4 79.8s-1-.8-1.3-1.6c-2.7 4.8-11.5 3.2-15 1.2m37-72.9c.4 4 0 12.2-1.7 14.7a7 7 0 01-1-.4c-1-.6-1.8-1.3-4.6-2.8a22 22 0 01-3.2-1.9s0 0 0 0h0c-1.7-1.2-3-2.5-5.3-4-3.4-2.5-2.6-5.2-2.6-5.2S59.4 2.5 68 2.7h3l1.5.1c1.7.2-.8.9-.5 3.7v0z" stroke="#fff" stroke-width="1.2" stroke-linecap="round" stroke-linejoin="round"></path><path d="M72.6 2.8c-.6 1.9-2.5 2.5-4.8 4.3a14.7 14.7 0 00-4.7 7.6c-.3 2-1.2 1.6-1.5 1.4 0 0 0 0 0 0s0 0 0 0c-1.7-1.2-3-2.5-5.3-4-3.4-2.5-2.6-5.2-2.6-5.2S59.4 2.5 68 2.7l4.5.1h0v0zM13 6.5c-.4 4 0 12.2 1.8 14.7a7 7 0 001-.4c1-.6 1.7-1.3 4.6-2.8a22 22 0 003.1-1.9s0 0 0 0h0c1.7-1.2 3-2.5 5.3-4 3.4-2.5 2.6-5.2 2.6-5.2S25.7 2.5 17 2.7h-2.9l-1.6.1c-1.7.2.8.9.5 3.7v0z" stroke="#fff" stroke-width="1.2" stroke-linecap="round" stroke-linejoin="round"></path><path d="M12.5 2.8c.6 1.9 2.5 2.5 4.8 4.3 2.2 1.7 4.2 5.3 4.7 7.6.3 2 1.2 1.6 1.5 1.4 0 0 0 0 0 0s0 0 0 0c1.7-1.2 3-2.5 5.3-4 3.4-2.5 2.6-5.2 2.6-5.2S25.7 2.5 17 2.7l-4.5.1h0zm26.8 71.7s2.9 2.2 6.3 0M50 58.8s4.1-3 9.3-.8M35 59.8S30.4 56 25 58m2.8 5.8c-.3.2-.4.7-.2 1a4 4 0 006 1.7c.4-.2.5-.6.4-1a4 4 0 00-6.1-1.7h0zm29.2 0c.4.2.5.7.3 1a4 4 0 01-6 1.7.8.8 0 01-.4-1 4 4 0 016.1-1.7h0z" stroke="#fff" stroke-width="1.2" stroke-linecap="round" stroke-linejoin="round"></path></svg>